<?xml version="1.0" encoding="utf-8"?>
<!-- Generator: Adobe Illustrator 24.0.1, SVG Export Plug-In . SVG Version: 6.00 Build 0)  -->
<svg version="1.1" id="Layer_1" xmlns="http://www.w3.org/2000/svg" xmlns:xlink="http://www.w3.org/1999/xlink" x="0px" y="0px"
	 viewBox="0 0 100 100" style="enable-background:new 0 0 100 100;" xml:space="preserve">
<style type="text/css">
	.st0{fill:#010101;}
</style>
<g>
	<g>
		<path class="st0" d="M36.3,25.61c0.02,0.57,0.28,1.39,0.86,1.62c0.22,0.09,0.37-0.19,0.28-0.37c-0.1-0.21-0.29-0.36-0.41-0.56
			c-0.12-0.21-0.2-0.45-0.23-0.69C36.76,25.3,36.28,25.27,36.3,25.61L36.3,25.61z"/>
	</g>
	<g>
		<path class="st0" d="M36.71,25.86c-0.11-0.28-0.1-0.4,0.21-0.51c0.15-0.05,0.3-0.09,0.45-0.13c0.31-0.06,0.87-0.22,0.98,0.13
			c0.09,0.29,0.02,0.72-0.02,1.02c-0.07,0.5-0.4,0.48-0.81,0.41c-0.4-0.07-0.56,0.55-0.17,0.61c0.54,0.07,1.19,0.08,1.45-0.49
			c0.13-0.29,0.13-0.67,0.13-0.99c0.01-0.33,0.01-0.77-0.18-1.05c-0.35-0.52-1.43-0.17-1.88,0.01c-0.22,0.09-0.56,0.18-0.64,0.42
			c-0.08,0.25,0.06,0.53,0.23,0.7C36.56,26.1,36.77,26,36.71,25.86L36.71,25.86z"/>
	</g>
	<g>
		<path class="st0" d="M38.75,24.97c1.64-1.64,3.45-3.06,5.58-4.02c0.64-0.29,1.41-0.62,2.13-0.62c1.36,0,1.83,1.23,2.11,2.33
			c0.29,1.18,0.52,2.38,0.95,3.52c0.08,0.21,0.46,0.2,0.42-0.06c-0.21-1.58-0.54-3.6-1.24-5.04c-0.47-0.97-1.42-1.37-2.48-1.28
			c-2.88,0.24-5.97,2.78-7.74,4.91C38.33,24.89,38.58,25.14,38.75,24.97L38.75,24.97z"/>
	</g>
	<g>
		<path class="st0" d="M38.68,27.04c2.44,0.84,5.33,1.71,7.95,1.51c1.47-0.11,3.69-1,3.26-2.82c-0.07-0.28-0.45-0.19-0.48,0.06
			c-0.34,4.03-8.39,1.36-10.64,0.9C38.55,26.65,38.46,26.97,38.68,27.04L38.68,27.04z"/>
	</g>
	<g>
		<path class="st0" d="M38.8,26.39c2.85-2.14,6.4-2.79,9.64-1.24c0.17,0.08,0.32-0.11,0.2-0.26c-1.1-1.33-3.54-1.29-5.09-1.06
			c-1.87,0.27-3.54,1.06-4.96,2.29C38.45,26.25,38.65,26.51,38.8,26.39L38.8,26.39z"/>
	</g>
	<g>
		<path class="st0" d="M39.8,25.66c1.58,0.12,6.61,1.01,7.34-1.16c0.07-0.21-0.28-0.37-0.37-0.16c-0.77,1.76-5.5,1.08-6.97,1.03
			C39.62,25.37,39.63,25.64,39.8,25.66L39.8,25.66z"/>
	</g>
	<g>
		<path class="st0" d="M36.9,25.03c-1.66-2.7-5.12-5.31-8.47-4.87c-3.12,0.41-4.37,3.8-2.85,6.38c0.08,0.14,0.28,0.04,0.25-0.11
			c-0.25-1.39-0.73-2.69,0.07-4.01c1-1.63,2.84-1.98,4.6-1.55c2.51,0.61,4.6,2.29,6.12,4.32C36.74,25.35,37.01,25.21,36.9,25.03
			L36.9,25.03z"/>
	</g>
	<g>
		<path class="st0" d="M25.01,25.13c0.45,2.49,2.86,3.04,5.11,3.43c2.35,0.41,4.8,0.12,6.7-1.41c0.24-0.19-0.08-0.6-0.33-0.42
			c-1.65,1.18-3.54,1.61-5.56,1.39c-2.18-0.24-4.9-0.81-5.78-3.02C25.12,24.99,24.99,25.03,25.01,25.13L25.01,25.13z"/>
	</g>
	<g>
		<path class="st0" d="M26.06,25.31c1.48-1.2,3.36-0.92,5.13-0.71c1.95,0.23,3.61,0.72,5.34,1.65c0.25,0.13,0.57-0.22,0.32-0.42
			c-1.65-1.29-3.86-1.67-5.89-1.85c-1.69-0.15-3.89-0.32-5.1,1.13C25.74,25.25,25.92,25.42,26.06,25.31L26.06,25.31z"/>
	</g>
	<g>
		<path class="st0" d="M27.89,24.47c-0.71,1.17,0.58,1.92,1.57,2.09c2.05,0.37,4.42,0.36,6.37-0.39c0.19-0.07,0.12-0.36-0.09-0.31
			c-0.93,0.22-8.1,1.04-7.51-1.24C28.29,24.4,28,24.28,27.89,24.47L27.89,24.47z"/>
	</g>
	<g>
		<path class="st0" d="M36.67,27.09c-0.3,0.93-0.47,2.03-0.96,2.89c-0.53,0.94-1.53,1.37-2.3,2.07c-1.2,1.08-1.79,2.6-1.97,4.18
			c-0.24,2.07,0.29,4.09,0.65,6.11c0.22,1.26,0.4,2.53,0.3,3.81c-0.1,1.27-0.58,2.29-1.06,3.45c-0.07,0.17,0.18,0.29,0.29,0.17
			c3-3.16,0.21-8.79,0.22-12.44c0-1.25,0.23-2.57,0.86-3.67c0.67-1.16,1.71-1.59,2.67-2.41c1.26-1.07,1.39-2.58,1.52-4.13
			C36.9,26.99,36.71,26.97,36.67,27.09L36.67,27.09z"/>
	</g>
	<g>
		<path class="st0" d="M37.32,27.34c0.4,1.08,0.52,2.2,0.14,3.31c-0.43,1.25-1.4,1.87-2.27,2.76c-1.02,1.04-1.66,2.35-1.76,3.82
			c-0.12,1.86,0.53,3.85,0.86,5.67c0.39,2.16,1.16,4.57-0.02,6.6c-0.11,0.2,0.15,0.39,0.31,0.24c1.13-1.07,0.93-2.61,0.69-4.02
			c-0.46-2.63-1.4-5.38-1.48-8.05c-0.05-1.45,0.5-2.78,1.48-3.83c0.67-0.71,1.48-1.26,2.04-2.07c0.95-1.37,1.03-3.07,0.29-4.55
			C37.53,27.07,37.26,27.17,37.32,27.34L37.32,27.34z"/>
	</g>
	<g>
		<path class="st0" d="M31.62,49.79c0.57-0.99,1.91-0.11,2.66,0.11c0.32,0.09,0.46-0.41,0.14-0.49c-0.93-0.24-2.46-1.01-3.06,0.23
			C31.27,49.81,31.52,49.96,31.62,49.79L31.62,49.79z"/>
	</g>
	<g>
		<path class="st0" d="M37.9,27.31c3.67,2.62,2.44,7.93,1.39,11.55c-0.86,2.99-2.08,6.57-0.73,9.59c0.06,0.14,0.25,0.03,0.23-0.1
			c-0.39-2.4-0.32-4.55,0.28-6.92c0.52-2.05,1.25-4.04,1.59-6.13c0.46-2.84,0.22-6.68-2.62-8.23C37.88,26.99,37.76,27.21,37.9,27.31
			L37.9,27.31z"/>
	</g>
	<g>
		<path class="st0" d="M38.52,27.44c3.23,2.85,4.16,6.77,3.09,10.93c-0.84,3.25-2.47,6.27-0.91,9.6c0.11,0.24,0.48,0.07,0.42-0.18
			c-0.61-2.34-0.66-4.32,0.1-6.63c0.63-1.88,1.24-3.71,1.31-5.71c0.11-3.07-1.05-6.61-3.86-8.22
			C38.56,27.17,38.41,27.34,38.52,27.44L38.52,27.44z"/>
	</g>
	<g>
		<path class="st0" d="M38.94,48.57c0.28-0.24,0.61-0.4,0.98-0.45c0.28-0.04,0.59,0.07,0.84-0.06c0.11-0.06,0.11-0.2,0.04-0.28
			c-0.24-0.28-0.76-0.17-1.08-0.09c-0.41,0.1-0.77,0.31-1.07,0.59C38.44,48.46,38.74,48.74,38.94,48.57L38.94,48.57z"/>
	</g>
	<g>
		<path class="st0" d="M30.18,20.71c0.06-0.43,0.14-0.87,0.19-1.31c0.02-0.17-0.24-0.22-0.31-0.08c-0.19,0.36-0.35,0.83-0.45,1.34
			C29.79,20.63,29.99,20.65,30.18,20.71z"/>
	</g>
	<g>
		<path class="st0" d="M30.27,19.55c6.74-1.1,13.59-1.56,20.41-1.47c3.07,0.04,6.15,0.1,9.22,0.27c3.53,0.18,7.03,0.7,10.56,0.85
			c0.24,0.01,0.29-0.37,0.06-0.42c-3.38-0.72-6.93-0.87-10.38-1.05c-3.23-0.17-6.46-0.24-9.69-0.28
			c-6.76-0.08-13.68,0.21-20.27,1.79C29.98,19.29,30.07,19.58,30.27,19.55L30.27,19.55z"/>
	</g>
	<g>
		<path class="st0" d="M70.37,19.06c0.1,0.8,0.23,1.59,0.23,2.4c0,0.78-0.14,1.56-0.1,2.34c0.01,0.13,0.21,0.22,0.28,0.07
			c0.66-1.44,0.61-3.41,0.07-4.88C70.75,18.76,70.33,18.77,70.37,19.06L70.37,19.06z"/>
	</g>
	<g>
		<path class="st0" d="M47,24.61c0.03-0.09,0.05-0.19,0.05-0.3c0-0.03,0.01-0.05,0.01-0.08c-1.67,0-3.33-0.01-5-0.04
			c-0.04,0.05-0.09,0.1-0.16,0.14c-0.31,0.17-0.61,0.34-0.9,0.53c1.9,0.04,3.79,0.04,5.68,0.04C46.79,24.82,46.9,24.72,47,24.61z"/>
		<path class="st0" d="M70.53,23.75c-3.01-0.04-6.05,0.22-9.06,0.31c-3.79,0.11-7.57,0.17-11.36,0.18c-0.3,0-0.59,0-0.89,0
			c0.08,0.22,0.14,0.44,0.19,0.67c0.23,0,0.47,0,0.7,0c3.85-0.01,7.69-0.07,11.54-0.18c2.95-0.09,6.01-0.08,8.93-0.57
			C70.81,24.11,70.75,23.75,70.53,23.75z"/>
		<path class="st0" d="M35.83,24.02c0.23,0.23,0.46,0.45,0.67,0.69c0.8,0.05,1.6,0.08,2.4,0.11c0.13-0.25,0.31-0.47,0.5-0.68
			C38.21,24.11,37.02,24.07,35.83,24.02z"/>
	</g>
	<g>
		<path class="st0" d="M69.15,24.21c0.16,0.28,0.45,0.66,0.28,0.99c-0.08,0.15-0.22,0.22-0.34,0.32c-0.09,0.08-0.15,0.18-0.23,0.27
			c-0.05,0.07-0.03,0.2,0.08,0.19c0.42-0.05,0.79-0.27,0.93-0.7c0.16-0.5-0.14-0.93-0.49-1.25C69.26,23.91,69.06,24.06,69.15,24.21
			L69.15,24.21z"/>
	</g>
	<g>
		<path class="st0" d="M69.47,25.45c-0.06,0.13-0.14,0.24-0.16,0.38c-0.03,0.16-0.02,0.34-0.01,0.5c0.02,0.27,0.05,0.62,0.32,0.74
			c0.09,0.04,0.2,0.03,0.26-0.07c0.13-0.21,0.04-0.43,0-0.66c-0.02-0.14-0.03-0.28-0.03-0.42c-0.01-0.14-0.05-0.26-0.07-0.4
			C69.76,25.39,69.55,25.28,69.47,25.45L69.47,25.45z"/>
	</g>
	<g>
		<path class="st0" d="M32.72,24.77c-0.06,0.3-0.09,0.6-0.09,0.91c0,0.24-0.03,0.57,0.17,0.73c0.06,0.05,0.14,0.04,0.18-0.02
			c0.12-0.2,0.02-0.43,0.01-0.65c-0.02-0.29,0-0.59,0.04-0.88C33.05,24.66,32.76,24.57,32.72,24.77L32.72,24.77z"/>
	</g>
	<g>
		<path class="st0" d="M49.44,27.05c6.82,0.52,13.75,0.24,20.58,0.14c0.34,0,0.34-0.53,0-0.52c-6.85,0.1-13.74-0.17-20.58,0.21
			C49.33,26.89,49.34,27.05,49.44,27.05L49.44,27.05z"/>
	</g>
	<g>
		<path class="st0" d="M69.42,26.95c2.22,0.8,2.6,3.96,4.03,5.56c0.94,1.06,2.54,2.5,4,2.64c0.21,0.02,0.23-0.25,0.1-0.35
			c-0.93-0.68-1.92-1.21-2.81-1.96c-1.04-0.88-1.51-1.85-2.12-3.02c-0.64-1.23-1.53-3.14-3.16-3.11
			C69.3,26.71,69.28,26.91,69.42,26.95L69.42,26.95z"/>
	</g>
	<g>
		<path class="st0" d="M30.88,28.47c-1.01,0.95-1.94,1.98-2.97,2.91c-1.02,0.92-2.22,1.7-3.18,2.67c-0.19,0.19,0.05,0.48,0.28,0.36
			c1.22-0.64,2.3-1.7,3.3-2.63c1.02-0.95,2.04-1.95,2.87-3.08C31.3,28.52,31.03,28.33,30.88,28.47L30.88,28.47z"/>
	</g>
	<g>
		<path class="st0" d="M24.73,34.28c1.28,1.8,4.59,3.07,6.72,3.04c0.25,0,0.3-0.36,0.06-0.43c-1.27-0.39-2.54-0.6-3.75-1.18
			c-0.98-0.47-1.82-1.23-2.79-1.66C24.82,33.99,24.62,34.13,24.73,34.28L24.73,34.28z"/>
	</g>
	<g>
		<path class="st0" d="M33.62,37.37c1.85,1.34,4.7-0.58,6.56-1.04c0.35-0.09,0.2-0.62-0.15-0.54c-1.02,0.25-1.97,0.69-2.96,1.03
			c-1.18,0.41-2.19,0.36-3.4,0.34C33.56,37.17,33.54,37.32,33.62,37.37L33.62,37.37z"/>
	</g>
	<g>
		<path class="st0" d="M42.26,36.26c1.79,0.42,3.44,0.91,5.15,1.59c1.52,0.61,3.03,0.65,4.65,0.58c1.39-0.06,2.64-0.31,3.87-0.96
			c1.91-1,3.61-1.71,5.74-2.09c0.31-0.06,0.24-0.57-0.08-0.56c-3.43,0.16-5.93,2.75-9.3,2.95c-1.84,0.11-3.44-0.04-5.16-0.72
			c-1.55-0.62-3.12-0.96-4.77-1.2C42.12,35.83,42,36.2,42.26,36.26L42.26,36.26z"/>
	</g>
	<g>
		<path class="st0" d="M58.6,36.28c5.93-0.46,13.93,4.62,18.74-0.99c0.2-0.23-0.1-0.54-0.34-0.34c-1.3,1.1-2.58,1.99-4.29,2.3
			c-1.82,0.33-3.71,0.05-5.5-0.32c-2.89-0.61-5.67-1.49-8.64-0.94C58.4,36.03,58.44,36.29,58.6,36.28L58.6,36.28z"/>
	</g>
	<g>
		<path class="st0" d="M63.75,28.79c0.98,2.09,2.05,4.19,3.4,6.06c0.1,0.14,0.33,0.02,0.24-0.14c-1.14-2.02-2.33-4-3.35-6.09
			C63.95,28.42,63.66,28.6,63.75,28.79L63.75,28.79z"/>
	</g>
	<g>
		<path class="st0" d="M64.67,28.47c0.69,1.62,1.47,3.26,2.53,4.67c0.08,0.11,0.25,0.02,0.19-0.11c-0.82-1.57-1.75-3.08-2.53-4.67
			C64.79,28.24,64.61,28.35,64.67,28.47L64.67,28.47z"/>
	</g>
	<g>
		<path class="st0" d="M57.35,28.84c-0.15,1.96-0.28,4.16,0.28,6.07c0.03,0.1,0.17,0.08,0.18-0.02c0.13-1.98-0.21-4.06-0.3-6.05
			C57.5,28.75,57.36,28.75,57.35,28.84L57.35,28.84z"/>
	</g>
	<g>
		<path class="st0" d="M57.83,28.77c-0.06,0.79-0.21,1.79,0.07,2.55c0.03,0.1,0.21,0.13,0.23,0c0.13-0.81-0.08-1.72-0.08-2.55
			C58.05,28.63,57.84,28.64,57.83,28.77L57.83,28.77z"/>
	</g>
	<g>
		<path class="st0" d="M48.37,28.34c-1.59,2.05-3.4,4.76-3.77,7.39c-0.01,0.1,0.12,0.19,0.18,0.08c0.63-1.22,1-2.55,1.64-3.78
			c0.64-1.22,1.38-2.39,2.2-3.49C48.73,28.38,48.48,28.19,48.37,28.34L48.37,28.34z"/>
	</g>
	<g>
		<path class="st0" d="M48.87,28.98c-0.99,1.66-2.04,3.69-2.24,5.63c-0.01,0.11,0.16,0.16,0.21,0.06c0.84-1.81,1.36-3.76,2.22-5.58
			C49.11,28.96,48.94,28.86,48.87,28.98L48.87,28.98z"/>
	</g>
	<g>
		<path class="st0" d="M46.4,35.37c-0.04,0.2-0.11,0.42-0.07,0.62c0.01,0.07,0.12,0.08,0.15,0.02c0.08-0.19,0.06-0.42,0.07-0.62
			C46.56,35.31,46.42,35.29,46.4,35.37L46.4,35.37z"/>
	</g>
	<g>
		<path class="st0" d="M39.22,30.92c-0.71,1.33-1.52,2.72-1.99,4.15c-0.04,0.12,0.13,0.18,0.2,0.08c0.84-1.24,1.45-2.71,2.08-4.07
			C39.58,30.89,39.32,30.73,39.22,30.92L39.22,30.92z"/>
	</g>
	<g>
		<path class="st0" d="M37.78,31.78c-0.38,0.44-0.93,1.03-1.02,1.62c-0.02,0.14,0.15,0.29,0.27,0.16c0.2-0.23,0.3-0.52,0.45-0.79
			c0.15-0.29,0.33-0.56,0.52-0.82C38.09,31.82,37.88,31.66,37.78,31.78L37.78,31.78z"/>
	</g>
	<g>
		<path class="st0" d="M30.7,30.89c0.24,0.62,0.44,1.38,0.85,1.91c0.09,0.11,0.26,0.05,0.23-0.1c-0.13-0.66-0.56-1.31-0.87-1.9
			C30.85,30.68,30.65,30.76,30.7,30.89L30.7,30.89z"/>
	</g>
	<g>
		<path class="st0" d="M31.21,30.82c0.1,0.42,0.23,0.93,0.52,1.27c0.06,0.07,0.19,0,0.16-0.09c-0.07-0.2-0.18-0.38-0.26-0.58
			c-0.09-0.21-0.16-0.43-0.21-0.66C31.39,30.62,31.18,30.68,31.21,30.82L31.21,30.82z"/>
	</g>
	<g>
		<path class="st0" d="M31.87,30.45c0.11,0.48,0.28,1.07,0.64,1.43c0.09,0.09,0.22-0.02,0.17-0.13c-0.09-0.22-0.24-0.41-0.34-0.63
			c-0.12-0.23-0.21-0.48-0.28-0.73C32.03,30.28,31.84,30.33,31.87,30.45L31.87,30.45z"/>
	</g>
	<g>
		<path class="st0" d="M32.32,30.08c0.11,0.2,0.23,0.41,0.34,0.61c0.11,0.19,0.2,0.39,0.35,0.55c0.1,0.1,0.26,0,0.23-0.13
			c-0.05-0.21-0.18-0.4-0.28-0.59c-0.11-0.21-0.22-0.41-0.33-0.62C32.52,29.7,32.21,29.88,32.32,30.08L32.32,30.08z"/>
	</g>
	<g>
		<path class="st0" d="M33.01,29.77c0.12,0.28,0.29,0.61,0.53,0.81c0.08,0.07,0.22-0.02,0.16-0.12c-0.16-0.26-0.34-0.49-0.46-0.78
			C33.17,29.51,32.94,29.6,33.01,29.77L33.01,29.77z"/>
	</g>
	<g>
		<path class="st0" d="M33.83,29.1c0.15,0.31,0.33,0.6,0.62,0.8c0.04,0.03,0.11-0.03,0.07-0.07c-0.19-0.26-0.4-0.52-0.54-0.81
			C33.93,28.91,33.78,29,33.83,29.1L33.83,29.1z"/>
	</g>
	<g>
		<path class="st0" d="M30.1,36.79c-1.39,1.4-2.62,3.24-2.88,5.23c-0.16,1.16-0.1,2.37-0.12,3.55c-0.03,2.66-0.05,5.32-0.07,7.98
			c-0.05,6.7-0.02,13.4,0.07,20.1c0.03,2.43,0.1,4.87,0.32,7.29c0.02,0.19,0.3,0.19,0.3,0c0.07-11.22,0-22.44-0.03-33.66
			c0-1.02-0.01-2.05,0-3.07c0-1.12-0.03-2.28,0.33-3.36c0.5-1.48,1.5-2.59,2.33-3.87C30.45,36.83,30.23,36.66,30.1,36.79L30.1,36.79
			z"/>
	</g>
	<g>
		<path class="st0" d="M27.24,76.34c0.03,2.57-0.57,5.46,0.89,7.77c1.32,2.1,3.82,2.98,6.18,3.18c3.33,0.28,6.76,0.12,10.1,0.1
			c3.24-0.02,6.69,0.21,9.89-0.32c0.2-0.03,0.12-0.31-0.04-0.33c-2.86-0.35-5.87-0.04-8.75-0.01c-2.85,0.03-5.71-0.01-8.56-0.02
			c-2.8-0.01-6.02-0.08-7.97-2.43c-1.8-2.17-1.16-5.36-1.56-7.97C27.4,76.21,27.24,76.24,27.24,76.34L27.24,76.34z"/>
	</g>
	<g>
		<path class="st0" d="M31.42,38.27c-1.32,1.82-2.64,3.29-2.64,5.65c0,0.84,0.05,1.69,0.07,2.54c0.05,2.47,0.07,4.94,0.1,7.4
			c0.08,6.44,0.18,12.88,0.22,19.31c0.01,2.13,0.06,4.27,0.07,6.4c0,0.18,0.27,0.18,0.28,0c0.27-4.64,0.11-9.33,0.1-13.98
			c-0.02-5.93-0.04-11.85-0.16-17.78c-0.02-0.9-0.04-1.8-0.07-2.69c-0.04-0.97-0.14-1.97,0.13-2.91c0.4-1.39,1.5-2.53,2.16-3.81
			C31.75,38.25,31.52,38.12,31.42,38.27L31.42,38.27z"/>
	</g>
	<g>
		<path class="st0" d="M29.33,76.13c-0.23,1.78-0.06,3.56,0.15,5.33c0.14,1.13,0.22,1.96,1.2,2.66c1.62,1.15,4.15,1.37,6.08,1.42
			c5.59,0.16,11.36,0.42,16.93-0.15c0.16-0.02,0.17-0.25,0-0.26c-4.98-0.21-9.99-0.09-14.97-0.2c-2.06-0.04-4.07-0.11-6.08-0.65
			c-1.67-0.45-2.42-1.09-2.69-2.89c-0.27-1.76-0.37-3.5-0.45-5.27C29.49,76.01,29.34,76.02,29.33,76.13L29.33,76.13z"/>
	</g>
	<g>
		<path class="st0" d="M72.48,37.63c0.56,0.89,1.24,1.66,1.61,2.66c0.42,1.15,0.48,2.36,0.48,3.57c0,0.84,0,1.68,0,2.52
			c-0.01,2.71-0.02,5.41-0.04,8.12c-0.04,6.48-0.02,12.96-0.06,19.43c-0.01,2.34,0.04,4.67,0.06,7.01c0,0.19,0.28,0.19,0.3,0
			c0.47-5.26,0.37-10.58,0.39-15.86c0.02-6.23,0-12.47-0.06-18.7c-0.03-3.27,0.05-6.44-2.43-8.94
			C72.6,37.32,72.38,37.48,72.48,37.63L72.48,37.63z"/>
	</g>
	<g>
		<path class="st0" d="M74.83,76.32c-0.4,2.61,0.24,5.79-1.56,7.97c-1.95,2.35-5.18,2.42-7.97,2.43c-2.85,0.02-5.71,0.05-8.56,0.02
			c-2.88-0.03-5.89-0.34-8.75,0.01c-0.17,0.02-0.25,0.29-0.04,0.33c3.12,0.52,6.46,0.29,9.62,0.32c3.43,0.02,6.96,0.19,10.38-0.1
			c2.28-0.19,4.71-1.02,6.06-3c1.6-2.33,0.98-5.32,1.01-7.96C75.01,76.24,74.85,76.21,74.83,76.32L74.83,76.32z"/>
	</g>
	<g>
		<path class="st0" d="M70.33,37.91c0.69,0.96,1.33,1.96,1.85,3.02c0.65,1.31,0.75,2.5,0.7,3.93c-0.03,0.67-0.04,1.35-0.06,2.02
			c-0.06,2.47-0.1,4.95-0.12,7.42c-0.05,6.33-0.08,12.67-0.07,19c0,2.09-0.01,4.19,0.11,6.27c0.01,0.18,0.28,0.18,0.28,0
			c0.07-10.9,0.18-21.8,0.38-32.7c0.02-0.99,0.08-1.97,0.08-2.96c0-2.37-1.3-4.52-2.92-6.18C70.45,37.62,70.24,37.78,70.33,37.91
			L70.33,37.91z"/>
	</g>
	<g>
		<path class="st0" d="M72.75,76.13c-0.08,1.68-0.17,3.34-0.42,5.01c-0.26,1.79-0.84,2.62-2.56,3.11c-2.06,0.58-4.13,0.65-6.24,0.69
			c-4.99,0.11-9.99-0.01-14.97,0.2c-0.17,0.01-0.16,0.24,0,0.26c5.58,0.57,11.34,0.31,16.93,0.15c1.92-0.05,4.34-0.28,5.99-1.36
			c0.96-0.63,1.13-1.38,1.26-2.45c0.23-1.86,0.42-3.73,0.18-5.6C72.91,76.02,72.76,76.01,72.75,76.13L72.75,76.13z"/>
	</g>
	<g>
		<path class="st0" d="M32.62,43.49c-1.13-0.3-2.26-0.64-3.39-1.02c-0.14-0.05-0.24,0.18-0.1,0.25c1.15,0.53,2.35,0.96,3.57,1.3
			C32.68,43.84,32.65,43.66,32.62,43.49z"/>
		<path class="st0" d="M38.43,44.53c-1.18-0.1-2.35-0.28-3.5-0.51c0.05,0.18,0.09,0.36,0.13,0.54c1.12,0.21,2.26,0.36,3.39,0.45
			C38.44,44.85,38.43,44.69,38.43,44.53z"/>
		<path class="st0" d="M72.74,43.46c-2.87,2.06-7.46,1.4-10.79,1.13c-3.67-0.29-7.33-1.38-11.03-1.08
			c-3.52,0.28-6.92,1.17-10.47,1.12c-0.01,0.07-0.02,0.14-0.05,0.2c0.03-0.07,0.02-0.01,0.01,0c0,0.02,0,0.05,0,0.05
			c0,0.03,0,0.03,0,0.01l0.01,0.05c0.01,0.04,0.02,0.07,0.03,0.11c0,0.01,0,0.02,0,0.02c3.63-0.01,7.11-0.85,10.74-1.1
			c3.94-0.27,7.91,0.97,11.84,1.23c3.14,0.21,7.3,0.77,9.99-1.26C73.32,43.74,73.04,43.24,72.74,43.46z"/>
	</g>
	<g>
		<path class="st0" d="M32.49,42.15c-1.01,0.1-2.03,0.2-3.04,0.32c-0.2,0.02-0.2,0.33,0,0.31c1.03-0.08,2.06-0.16,3.1-0.24
			C32.53,42.41,32.51,42.28,32.49,42.15z"/>
		<path class="st0" d="M38.79,41.75c0.01-0.03,0.02-0.05,0.04-0.08c-1.48,0.08-2.97,0.18-4.45,0.31c0.04,0.14,0.07,0.28,0.11,0.41
			c1.4-0.11,2.8-0.2,4.2-0.27C38.72,42,38.75,41.87,38.79,41.75z"/>
		<path class="st0" d="M72.96,42.81c-3.09-1.18-6.33-0.61-9.53-0.25c-3.95,0.44-7.96,0.6-11.9,0c-1.62-0.25-3.21-0.63-4.84-0.84
			c-1.86-0.23-3.74-0.2-5.61-0.14c-0.04,0-0.08,0-0.12,0c-0.04,0.15-0.07,0.3-0.11,0.45c1.76-0.06,3.54-0.09,5.29,0.08
			c1.96,0.2,3.87,0.7,5.81,0.97c3.43,0.47,6.91,0.39,10.36,0.06c3.5-0.33,7.11-1.17,10.51,0.13C73.12,43.38,73.24,42.92,72.96,42.81
			z"/>
	</g>
	<g>
		<path class="st0" d="M27.89,69.5c0.11,0.21,0.25,0.4,0.41,0.58c0.14,0.15,0.33,0.34,0.54,0.38c0.07,0.01,0.14-0.06,0.1-0.12
			c-0.1-0.17-0.29-0.28-0.42-0.42c-0.16-0.16-0.29-0.34-0.4-0.54C28.03,69.22,27.81,69.35,27.89,69.5L27.89,69.5z"/>
	</g>
	<g>
		<path class="st0" d="M28.02,68.76c0.11,0.14,0.22,0.28,0.34,0.43c0.1,0.13,0.2,0.27,0.33,0.37c0.06,0.04,0.12-0.04,0.09-0.09
			c-0.07-0.15-0.2-0.28-0.3-0.4c-0.12-0.14-0.23-0.28-0.35-0.41C28.07,68.57,27.96,68.69,28.02,68.76L28.02,68.76z"/>
	</g>
	<g>
		<path class="st0" d="M28.16,67.88c0.17,0.24,0.32,0.51,0.51,0.73c0.04,0.04,0.1-0.01,0.08-0.06c-0.13-0.26-0.33-0.49-0.49-0.73
			C28.22,67.76,28.11,67.82,28.16,67.88L28.16,67.88z"/>
	</g>
	<g>
		<path class="st0" d="M28.19,67.11c0.15,0.2,0.29,0.41,0.46,0.59c0.08,0.08,0.21-0.02,0.15-0.12c-0.11-0.21-0.27-0.39-0.42-0.58
			C28.3,66.88,28.1,66.99,28.19,67.11L28.19,67.11z"/>
	</g>
	<g>
		<path class="st0" d="M36.99,85.77c0.15,0.15,0.3,0.31,0.45,0.46c0.14,0.14,0.27,0.31,0.45,0.4c0.08,0.05,0.18-0.05,0.13-0.13
			c-0.1-0.17-0.26-0.31-0.4-0.45c-0.15-0.15-0.31-0.3-0.46-0.45C37.04,85.52,36.89,85.67,36.99,85.77L36.99,85.77z"/>
	</g>
	<g>
		<path class="st0" d="M37.89,85.88c0.29,0.24,0.57,0.5,0.88,0.72c0.03,0.02,0.06-0.02,0.04-0.05c-0.26-0.27-0.55-0.51-0.83-0.75
			C37.92,85.75,37.84,85.83,37.89,85.88L37.89,85.88z"/>
	</g>
	<g>
		<path class="st0" d="M39.04,85.81c0.24,0.25,0.55,0.55,0.89,0.67c0.07,0.02,0.09-0.07,0.04-0.1c-0.14-0.1-0.29-0.18-0.43-0.28
			c-0.15-0.11-0.28-0.24-0.41-0.37C39.07,85.66,38.98,85.75,39.04,85.81L39.04,85.81z"/>
	</g>
	<g>
		<path class="st0" d="M40.67,86.12c0.13,0.12,0.24,0.26,0.39,0.36c0.07,0.05,0.16-0.05,0.12-0.12c-0.1-0.15-0.23-0.27-0.36-0.39
			C40.73,85.88,40.58,86.03,40.67,86.12L40.67,86.12z"/>
	</g>
	<g>
		<path class="st0" d="M69.57,85.22c0.35,0.29,0.73,0.69,1.16,0.85c0.08,0.03,0.16-0.07,0.11-0.14c-0.12-0.18-0.31-0.32-0.49-0.45
			c-0.21-0.15-0.41-0.31-0.62-0.46C69.61,84.91,69.45,85.12,69.57,85.22L69.57,85.22z"/>
	</g>
	<g>
		<path class="st0" d="M70.41,84.8c0.15,0.13,0.3,0.26,0.45,0.38c0.14,0.12,0.27,0.25,0.43,0.34c0.05,0.03,0.1-0.04,0.06-0.08
			c-0.12-0.14-0.28-0.25-0.42-0.37c-0.14-0.12-0.29-0.24-0.43-0.36C70.44,84.67,70.35,84.75,70.41,84.8L70.41,84.8z"/>
	</g>
	<g>
		<path class="st0" d="M71.14,84.25c0.28,0.22,0.56,0.46,0.88,0.63c0.05,0.02,0.09-0.03,0.06-0.07c-0.25-0.27-0.57-0.46-0.86-0.68
			C71.14,84.06,71.06,84.19,71.14,84.25L71.14,84.25z"/>
	</g>
	<g>
		<path class="st0" d="M72.08,83.88c0.19,0.12,0.38,0.26,0.58,0.35c0.07,0.04,0.12-0.06,0.06-0.1c-0.18-0.14-0.38-0.24-0.58-0.35
			C72.07,83.74,72.01,83.84,72.08,83.88L72.08,83.88z"/>
	</g>
	<g>
		<path class="st0" d="M72.78,82.69c0.22,0.14,0.44,0.27,0.67,0.4c0.06,0.03,0.14-0.05,0.08-0.1c-0.21-0.17-0.42-0.33-0.64-0.48
			C72.77,82.43,72.67,82.62,72.78,82.69L72.78,82.69z"/>
	</g>
	<g>
		<path class="st0" d="M36.74,52.18c1.36,1.85,2.74,3.74,4.28,5.45c0.06,0.07,0.18-0.02,0.13-0.1c-1.4-1.83-2.89-3.59-4.28-5.43
			C36.81,52.03,36.68,52.1,36.74,52.18L36.74,52.18z"/>
	</g>
	<g>
		<path class="st0" d="M37.16,51.42c1.11,1.29,2.15,2.65,3.27,3.93c0.04,0.05,0.12-0.02,0.08-0.07c-0.99-1.39-2.12-2.69-3.24-3.98
			C37.2,51.23,37.09,51.35,37.16,51.42L37.16,51.42z"/>
	</g>
	<g>
		<path class="st0" d="M40.84,56.3c0.3,0.24,0.54,0.52,0.79,0.79c0.04,0.04,0.11-0.01,0.08-0.06c-0.2-0.31-0.5-0.58-0.79-0.81
			C40.87,56.17,40.78,56.25,40.84,56.3L40.84,56.3z"/>
	</g>
	<g>
		<path class="st0" d="M38.14,50.55c0.68,1.06,1.43,2.21,2.38,3.05c0.08,0.07,0.23-0.03,0.16-0.12c-0.78-1.02-1.66-1.95-2.38-3.02
			C38.23,50.36,38.07,50.45,38.14,50.55L38.14,50.55z"/>
	</g>
	<g>
		<path class="st0" d="M41.34,54.72c0.24,0.24,0.45,0.5,0.65,0.77c0.04,0.05,0.12,0.01,0.09-0.05c-0.17-0.31-0.39-0.57-0.65-0.81
			C41.37,54.58,41.28,54.67,41.34,54.72L41.34,54.72z"/>
	</g>
	<g>
		<path class="st0" d="M55.36,61.79c1.85,2.1,3.66,4.26,5.6,6.27c0.07,0.08,0.18-0.04,0.11-0.11c-1.77-2.17-3.7-4.22-5.57-6.31
			C55.42,61.53,55.27,61.68,55.36,61.79L55.36,61.79z"/>
	</g>
	<g>
		<path class="st0" d="M55.45,60.34c1.17,1.29,2.33,2.61,3.59,3.82c0.07,0.07,0.17-0.03,0.1-0.1c-1.13-1.33-2.37-2.57-3.58-3.83
			C55.49,60.15,55.38,60.26,55.45,60.34L55.45,60.34z"/>
	</g>
	<g>
		<path class="st0" d="M59.7,64.93c0.55,0.52,1.09,1.08,1.6,1.64c0.03,0.03,0.07-0.01,0.05-0.05c-0.49-0.59-1.01-1.14-1.58-1.66
			C59.72,64.83,59.66,64.89,59.7,64.93L59.7,64.93z"/>
	</g>
	<g>
		<path class="st0" d="M57.17,60.55c1.51,1.62,2.9,3.33,4.39,4.96c0.03,0.03,0.08-0.01,0.06-0.04c-1.24-1.82-2.78-3.47-4.31-5.05
			C57.22,60.32,57.09,60.46,57.17,60.55L57.17,60.55z"/>
	</g>
	<g>
		<path class="st0" d="M56.24,59.61c0.12,0.14,0.25,0.28,0.37,0.42c0.04,0.04,0.1-0.02,0.06-0.06c-0.12-0.15-0.23-0.29-0.35-0.44
			C56.28,59.47,56.19,59.56,56.24,59.61L56.24,59.61z"/>
	</g>
	<g>
		<path class="st0" d="M59.37,60.73c0.37,0.45,0.73,0.97,1.18,1.34c0.06,0.05,0.16-0.01,0.12-0.09c-0.3-0.51-0.76-0.95-1.14-1.4
			C59.43,60.48,59.28,60.63,59.37,60.73L59.37,60.73z"/>
	</g>
	<g>
		<path class="st0" d="M42.1,77.35c1.12,1.41,2.28,2.87,3.63,4.08c0.06,0.06,0.15-0.03,0.1-0.1c-1.19-1.38-2.46-2.67-3.6-4.1
			C42.16,77.14,42.04,77.26,42.1,77.35L42.1,77.35z"/>
	</g>
	<g>
		<path class="st0" d="M42.23,76.65c1.03,1.08,2.03,2.19,3.07,3.26c0.04,0.04,0.09-0.02,0.06-0.06c-0.94-1.17-1.99-2.23-3.08-3.25
			C42.24,76.58,42.2,76.62,42.23,76.65L42.23,76.65z"/>
	</g>
	<g>
		<path class="st0" d="M45.87,80.78c0.23,0.2,0.46,0.46,0.74,0.58c0.05,0.02,0.12-0.03,0.08-0.08c-0.17-0.25-0.46-0.43-0.7-0.62
			C45.9,80.59,45.78,80.71,45.87,80.78L45.87,80.78z"/>
	</g>
	<g>
		<path class="st0" d="M64.16,28.91c0.36,0.19,0.68,0.44,0.99,0.71c0.08,0.07,0.18-0.04,0.11-0.11c-0.28-0.32-0.62-0.57-1-0.77
			C64.14,28.69,64.05,28.85,64.16,28.91L64.16,28.91z"/>
	</g>
	<g>
		<path class="st0" d="M64.21,29.59c0.38,0.28,0.75,0.62,1.17,0.83c0.08,0.04,0.17-0.06,0.1-0.13c-0.33-0.35-0.78-0.61-1.16-0.89
			C64.21,29.31,64.1,29.51,64.21,29.59L64.21,29.59z"/>
	</g>
	<g>
		<path class="st0" d="M64.77,30.58c0.44,0.42,0.98,0.9,1.56,1.1c0.08,0.03,0.15-0.09,0.08-0.14c-0.22-0.17-0.48-0.3-0.71-0.46
			c-0.28-0.19-0.54-0.4-0.79-0.63C64.82,30.35,64.68,30.49,64.77,30.58L64.77,30.58z"/>
	</g>
	<g>
		<path class="st0" d="M65.36,31.79c0.47,0.4,0.98,0.84,1.56,1.08c0.06,0.03,0.12-0.07,0.07-0.11c-0.48-0.39-1.01-0.7-1.49-1.1
			C65.4,31.58,65.26,31.71,65.36,31.79L65.36,31.79z"/>
	</g>
	<g>
		<path class="st0" d="M66.68,33.52c0.22,0.14,0.43,0.3,0.66,0.41c0.05,0.03,0.12-0.04,0.07-0.09c-0.2-0.17-0.43-0.31-0.65-0.46
			C66.67,33.33,66.59,33.47,66.68,33.52L66.68,33.52z"/>
	</g>
	<g>
		<path class="st0" d="M71.57,35.32c0.36,0.23,0.7,0.5,1.11,0.62c0.07,0.02,0.11-0.07,0.07-0.11c-0.3-0.31-0.69-0.49-1.07-0.7
			C71.55,35.06,71.45,35.24,71.57,35.32L71.57,35.32z"/>
	</g>
	<g>
		<path class="st0" d="M71.77,34.91c0.37,0.22,0.75,0.52,1.17,0.65c0.07,0.02,0.13-0.08,0.08-0.13c-0.32-0.3-0.76-0.49-1.14-0.7
			C71.76,34.66,71.66,34.84,71.77,34.91L71.77,34.91z"/>
	</g>
	<g>
		<path class="st0" d="M72,34.18c0.29,0.15,0.58,0.3,0.89,0.41c0.06,0.02,0.08-0.06,0.04-0.09c-0.27-0.18-0.56-0.32-0.85-0.46
			C71.98,33.98,71.9,34.13,72,34.18L72,34.18z"/>
	</g>
	<g>
		<path class="st0" d="M57.52,33.36c0.28,0.24,0.56,0.55,0.89,0.71c0.05,0.02,0.12-0.03,0.08-0.08c-0.22-0.3-0.57-0.52-0.85-0.75
			C57.56,33.18,57.44,33.29,57.52,33.36L57.52,33.36z"/>
	</g>
	<g>
		<path class="st0" d="M57.33,32.71c0.33,0.22,0.66,0.45,1.01,0.64c0.06,0.03,0.11-0.05,0.05-0.09c-0.32-0.24-0.67-0.44-1.01-0.65
			C57.33,32.56,57.27,32.67,57.33,32.71L57.33,32.71z"/>
	</g>
	<g>
		<path class="st0" d="M57.45,31.85c0.33,0.3,0.65,0.62,1.01,0.89c0.05,0.04,0.11-0.04,0.07-0.09c-0.3-0.33-0.65-0.61-0.97-0.9
			C57.49,31.68,57.38,31.78,57.45,31.85L57.45,31.85z"/>
	</g>
	<g>
		<path class="st0" d="M57.45,30.98c0.33,0.32,0.65,0.68,1.03,0.94c0.07,0.05,0.13-0.05,0.08-0.11c-0.28-0.35-0.67-0.64-1-0.94
			C57.49,30.81,57.38,30.91,57.45,30.98L57.45,30.98z"/>
	</g>
	<g>
		<path class="st0" d="M57.58,29.81c0.14,0.01,0.26,0.09,0.36,0.19c0.09,0.09,0.21-0.02,0.16-0.13c-0.09-0.2-0.31-0.29-0.52-0.28
			C57.44,29.61,57.44,29.8,57.58,29.81L57.58,29.81z"/>
	</g>
	<g>
		<path class="st0" d="M51.72,21.85c0.28,0.37,0.64,0.81,1.07,1.02c0.09,0.05,0.19-0.07,0.11-0.15c-0.16-0.16-0.35-0.29-0.51-0.45
			c-0.17-0.17-0.33-0.35-0.48-0.54C51.83,21.62,51.63,21.73,51.72,21.85L51.72,21.85z"/>
	</g>
	<g>
		<path class="st0" d="M52.58,21.82c0.27,0.24,0.53,0.48,0.8,0.71c0.03,0.02,0.06-0.01,0.04-0.04c-0.25-0.25-0.52-0.49-0.78-0.73
			C52.6,21.72,52.54,21.78,52.58,21.82L52.58,21.82z"/>
	</g>
	<g>
		<path class="st0" d="M53.13,21.63c0.36,0.34,0.71,0.7,1.11,0.99c0.05,0.04,0.1-0.04,0.07-0.08c-0.32-0.37-0.7-0.69-1.07-1.02
			C53.17,21.45,53.06,21.56,53.13,21.63L53.13,21.63z"/>
	</g>
	<g>
		<path class="st0" d="M54.06,21.86c0.3,0.29,0.6,0.65,0.97,0.85c0.06,0.03,0.13-0.03,0.09-0.09c-0.23-0.35-0.61-0.62-0.92-0.9
			C54.11,21.62,53.96,21.77,54.06,21.86L54.06,21.86z"/>
	</g>
	<g>
		<path class="st0" d="M55.45,22.04c0.12,0.12,0.24,0.24,0.37,0.35c0.04,0.04,0.09-0.02,0.06-0.06c-0.12-0.12-0.24-0.24-0.35-0.37
			C55.48,21.93,55.41,22,55.45,22.04L55.45,22.04z"/>
	</g>
	<g>
		<path class="st0" d="M35.8,21.69c0.21,0.2,0.42,0.39,0.63,0.59c0.19,0.18,0.37,0.38,0.58,0.52c0.07,0.05,0.13-0.05,0.08-0.11
			c-0.17-0.2-0.4-0.37-0.61-0.55c-0.21-0.18-0.41-0.36-0.62-0.53C35.83,21.58,35.75,21.65,35.8,21.69L35.8,21.69z"/>
	</g>
	<g>
		<path class="st0" d="M36.24,21.47c0.14,0.13,0.28,0.25,0.42,0.38c0.13,0.11,0.25,0.25,0.39,0.34c0.05,0.03,0.12-0.03,0.08-0.08
			c-0.1-0.14-0.25-0.24-0.38-0.36c-0.14-0.13-0.28-0.25-0.42-0.38C36.27,21.32,36.17,21.41,36.24,21.47L36.24,21.47z"/>
	</g>
	<g>
		<path class="st0" d="M36.77,21.01c0.29,0.24,0.58,0.52,0.92,0.69c0.07,0.04,0.13-0.05,0.08-0.11c-0.23-0.29-0.56-0.51-0.85-0.74
			C36.82,20.77,36.66,20.92,36.77,21.01L36.77,21.01z"/>
	</g>
	<g>
		<path class="st0" d="M40.1,26.1c0.32,0.41,0.62,0.88,1.01,1.22c0.05,0.05,0.14-0.01,0.1-0.08c-0.26-0.46-0.66-0.85-1-1.25
			C40.15,25.9,40.04,26.02,40.1,26.1L40.1,26.1z"/>
	</g>
	<g>
		<path class="st0" d="M40.59,26.18c0.39,0.39,0.77,0.86,1.21,1.19c0.05,0.04,0.13-0.04,0.09-0.09c-0.33-0.45-0.79-0.82-1.19-1.21
			C40.63,26,40.52,26.11,40.59,26.18L40.59,26.18z"/>
	</g>
	<g>
		<path class="st0" d="M41.24,26.18c0.2,0.23,0.41,0.45,0.61,0.68c0.19,0.21,0.36,0.43,0.6,0.58c0.06,0.04,0.12-0.04,0.09-0.09
			c-0.14-0.25-0.35-0.44-0.54-0.64c-0.21-0.22-0.43-0.43-0.64-0.65C41.28,25.99,41.17,26.1,41.24,26.18L41.24,26.18z"/>
	</g>
	<g>
		<path class="st0" d="M42.23,26.35c0.33,0.32,0.65,0.65,0.96,0.99c0.02,0.03,0.06-0.01,0.04-0.04c-0.28-0.37-0.6-0.69-0.95-0.99
			C42.24,26.28,42.2,26.32,42.23,26.35L42.23,26.35z"/>
	</g>
	<g>
		<path class="st0" d="M45.49,26.4c0.14,0.14,0.28,0.28,0.41,0.42c0.12,0.13,0.25,0.29,0.41,0.37c0.07,0.04,0.15-0.04,0.11-0.11
			c-0.08-0.16-0.25-0.28-0.37-0.41c-0.14-0.14-0.28-0.28-0.42-0.41C45.54,26.17,45.4,26.31,45.49,26.4L45.49,26.4z"/>
	</g>
	<g>
		<path class="st0" d="M45.91,26.2c0.24,0.24,0.47,0.49,0.72,0.72c0.02,0.02,0.05-0.01,0.03-0.03c-0.23-0.25-0.48-0.48-0.72-0.72
			C45.92,26.15,45.89,26.18,45.91,26.2L45.91,26.2z"/>
	</g>
	<g>
		<path class="st0" d="M46.41,25.87c0.14,0.3,0.34,0.62,0.62,0.81c0.07,0.04,0.16-0.05,0.11-0.11c-0.19-0.27-0.41-0.5-0.55-0.81
			C46.53,25.65,46.35,25.75,46.41,25.87L46.41,25.87z"/>
	</g>
	<g>
		<path class="st0" d="M27.99,22.56c0.13,0.18,0.28,0.35,0.43,0.51c0.14,0.15,0.3,0.31,0.49,0.39c0.07,0.03,0.14-0.07,0.1-0.13
			c-0.11-0.17-0.28-0.29-0.42-0.43c-0.15-0.15-0.3-0.31-0.43-0.47C28.08,22.34,27.92,22.46,27.99,22.56L27.99,22.56z"/>
	</g>
	<g>
		<path class="st0" d="M28.76,22.55c0.16,0.14,0.33,0.28,0.49,0.42c0.15,0.13,0.29,0.28,0.46,0.38c0.06,0.04,0.13-0.05,0.08-0.1
			c-0.14-0.15-0.31-0.27-0.47-0.39c-0.16-0.13-0.32-0.26-0.48-0.38C28.78,22.43,28.71,22.5,28.76,22.55L28.76,22.55z"/>
	</g>
	<g>
		<path class="st0" d="M29.68,22.42c0.34,0.38,0.67,0.78,1.03,1.13c0.04,0.04,0.1-0.02,0.06-0.06c-0.32-0.39-0.68-0.76-1.03-1.13
			C29.7,22.31,29.64,22.38,29.68,22.42L29.68,22.42z"/>
	</g>
	<g>
		<path class="st0" d="M30.76,22.64c0.15,0.17,0.3,0.33,0.45,0.5c0.14,0.15,0.26,0.32,0.43,0.44c0.06,0.04,0.12-0.04,0.09-0.09
			c-0.1-0.17-0.27-0.32-0.4-0.47c-0.15-0.17-0.3-0.33-0.45-0.5C30.8,22.45,30.69,22.56,30.76,22.64L30.76,22.64z"/>
	</g>
	<g>
		<path class="st0" d="M31.41,22.63c0.12,0.14,0.23,0.29,0.37,0.42c0.05,0.04,0.13-0.01,0.09-0.07c-0.11-0.16-0.24-0.3-0.36-0.45
			C31.45,22.47,31.35,22.57,31.41,22.63L31.41,22.63z"/>
	</g>
	<g>
		<path class="st0" d="M33.1,27.06c0.19,0.21,0.37,0.45,0.59,0.64c0.08,0.07,0.22-0.02,0.16-0.12c-0.16-0.25-0.38-0.47-0.57-0.69
			C33.17,26.76,32.99,26.94,33.1,27.06L33.1,27.06z"/>
	</g>
	<g>
		<path class="st0" d="M33.58,26.96c0.26,0.19,0.52,0.44,0.82,0.56c0.06,0.02,0.09-0.06,0.06-0.1c-0.11-0.12-0.24-0.2-0.37-0.29
			c-0.14-0.1-0.28-0.2-0.43-0.3C33.58,26.79,33.51,26.91,33.58,26.96L33.58,26.96z"/>
	</g>
	<g>
		<path class="st0" d="M34.22,26.61c0.13,0.09,0.25,0.18,0.38,0.27c0.11,0.08,0.22,0.18,0.35,0.24c0.06,0.02,0.09-0.06,0.06-0.1
			c-0.09-0.11-0.23-0.18-0.34-0.26c-0.13-0.09-0.25-0.18-0.38-0.27C34.22,26.43,34.15,26.56,34.22,26.61L34.22,26.61z"/>
	</g>
	<g>
		<path class="st0" d="M35.06,26.54c0.1,0.1,0.2,0.2,0.32,0.28c0.06,0.04,0.14-0.04,0.1-0.1c-0.08-0.12-0.19-0.22-0.28-0.32
			C35.11,26.31,34.96,26.45,35.06,26.54L35.06,26.54z"/>
	</g>
	<g>
		<path class="st0" d="M33.58,33.44c0.22,0.16,0.43,0.34,0.66,0.49c0.05,0.04,0.12-0.05,0.07-0.09c-0.21-0.18-0.44-0.35-0.66-0.51
			C33.58,33.27,33.51,33.39,33.58,33.44L33.58,33.44z"/>
	</g>
	<g>
		<path class="st0" d="M34.09,33.06c0.21,0.14,0.42,0.31,0.65,0.43c0.04,0.02,0.08-0.03,0.04-0.06c-0.2-0.17-0.44-0.3-0.65-0.44
			C34.09,32.96,34.05,33.03,34.09,33.06L34.09,33.06z"/>
	</g>
	<g>
		<path class="st0" d="M34.52,32.49c0.13,0.09,0.25,0.17,0.38,0.26c0.03,0.02,0.06-0.02,0.03-0.04c-0.11-0.1-0.23-0.2-0.34-0.3
			C34.53,32.35,34.46,32.44,34.52,32.49L34.52,32.49z"/>
	</g>
	<g>
		<path class="st0" d="M40.19,38.46c0.23,0.22,0.44,0.45,0.71,0.62c0.1,0.06,0.18-0.07,0.11-0.15c-0.2-0.24-0.47-0.42-0.72-0.61
			C40.21,38.26,40.12,38.39,40.19,38.46L40.19,38.46z"/>
	</g>
	<g>
		<path class="st0" d="M40.32,37.86c0.14,0.08,0.29,0.16,0.42,0.26c0.13,0.09,0.25,0.23,0.39,0.29c0.08,0.03,0.17-0.04,0.12-0.12
			c-0.08-0.14-0.23-0.23-0.36-0.32c-0.15-0.11-0.31-0.2-0.47-0.29C40.31,37.61,40.2,37.8,40.32,37.86L40.32,37.86z"/>
	</g>
	<g>
		<path class="st0" d="M40.69,37.13c0.13,0.09,0.25,0.18,0.38,0.27c0.12,0.08,0.23,0.18,0.37,0.22c0.05,0.01,0.11-0.05,0.07-0.09
			c-0.08-0.12-0.21-0.19-0.33-0.27c-0.14-0.09-0.27-0.18-0.41-0.27C40.69,36.93,40.61,37.07,40.69,37.13L40.69,37.13z"/>
	</g>
	<g>
		<path class="st0" d="M41.1,36.2c0.11,0,0.11-0.18,0-0.18C40.99,36.03,40.99,36.2,41.1,36.2L41.1,36.2z"/>
	</g>
	<g>
		<path class="st0" d="M33.28,46.99c0.17,0.12,0.34,0.27,0.53,0.34c0.06,0.02,0.09-0.06,0.06-0.1c-0.13-0.16-0.34-0.27-0.5-0.39
			C33.28,46.78,33.19,46.92,33.28,46.99L33.28,46.99z"/>
	</g>
	<g>
		<path class="st0" d="M33.39,46.34c0.12,0.11,0.25,0.25,0.41,0.3c0.07,0.02,0.14-0.06,0.1-0.13c-0.08-0.14-0.25-0.24-0.38-0.34
			C33.43,46.09,33.3,46.26,33.39,46.34L33.39,46.34z"/>
	</g>
	<g>
		<path class="st0" d="M45.25,34.22c0.1,0.15,0.22,0.29,0.31,0.45c0.09,0.15,0.17,0.29,0.29,0.42c0.06,0.06,0.15,0,0.14-0.08
			c-0.05-0.33-0.34-0.69-0.58-0.91C45.33,34.03,45.19,34.13,45.25,34.22L45.25,34.22z"/>
	</g>
	<g>
		<path class="st0" d="M45.52,33.51c0.14,0.19,0.28,0.39,0.4,0.6c0.11,0.2,0.21,0.39,0.38,0.54c0.04,0.04,0.13,0.02,0.12-0.05
			c-0.04-0.47-0.42-0.89-0.71-1.23C45.62,33.27,45.44,33.41,45.52,33.51L45.52,33.51z"/>
	</g>
	<g>
		<path class="st0" d="M45.97,32.71c0.13,0.18,0.26,0.36,0.38,0.53c0.12,0.16,0.22,0.35,0.37,0.48c0.08,0.07,0.19-0.02,0.15-0.11
			c-0.08-0.19-0.23-0.35-0.35-0.51c-0.12-0.17-0.25-0.33-0.37-0.5C46.08,32.49,45.89,32.6,45.97,32.71L45.97,32.71z"/>
	</g>
	<g>
		<path class="st0" d="M46.2,31.91c0.12,0.18,0.25,0.36,0.37,0.54c0.11,0.16,0.22,0.35,0.37,0.49c0.09,0.09,0.22-0.02,0.17-0.13
			c-0.08-0.19-0.23-0.35-0.35-0.51c-0.12-0.17-0.25-0.33-0.37-0.5C46.3,31.7,46.11,31.8,46.2,31.91L46.2,31.91z"/>
	</g>
	<g>
		<path class="st0" d="M46.68,31.06c0.2,0.39,0.47,0.93,0.86,1.15c0.07,0.04,0.14-0.04,0.11-0.11c-0.1-0.21-0.27-0.38-0.41-0.56
			c-0.14-0.19-0.26-0.39-0.37-0.59C46.8,30.83,46.62,30.94,46.68,31.06L46.68,31.06z"/>
	</g>
	<g>
		<path class="st0" d="M47.22,30.71c0.13,0.14,0.24,0.28,0.34,0.44c0.08,0.14,0.14,0.3,0.25,0.41c0.04,0.05,0.14,0.01,0.13-0.05
			c-0.02-0.18-0.13-0.33-0.23-0.48c-0.11-0.16-0.23-0.31-0.36-0.44C47.27,30.5,47.15,30.62,47.22,30.71L47.22,30.71z"/>
	</g>
	<g>
		<path class="st0" d="M47.73,30.35c0.18,0.22,0.35,0.51,0.6,0.65c0.05,0.03,0.14-0.02,0.11-0.09c-0.11-0.27-0.38-0.49-0.58-0.7
			C47.78,30.12,47.65,30.25,47.73,30.35L47.73,30.35z"/>
	</g>
	<g>
		<path class="st0" d="M47.98,29.62c0.15,0.24,0.28,0.51,0.46,0.73c0.06,0.07,0.19,0,0.16-0.09c-0.1-0.26-0.28-0.51-0.43-0.75
			C48.1,29.39,47.91,29.5,47.98,29.62L47.98,29.62z"/>
	</g>
	<g>
		<path class="st0" d="M48.19,29.05c0.08,0.12,0.15,0.23,0.23,0.35c0.07,0.1,0.14,0.23,0.23,0.31c0.07,0.05,0.18,0.01,0.15-0.09
			c-0.03-0.12-0.12-0.23-0.19-0.33c-0.08-0.12-0.15-0.23-0.23-0.35C48.31,28.81,48.11,28.92,48.19,29.05L48.19,29.05z"/>
	</g>
	<g>
		<path class="st0" d="M50.89,36.17c0.11,0.12,0.22,0.24,0.33,0.35c0.1,0.11,0.2,0.23,0.33,0.31c0.08,0.05,0.18-0.05,0.13-0.13
			c-0.08-0.13-0.2-0.22-0.31-0.33c-0.12-0.11-0.24-0.22-0.35-0.33C50.94,35.97,50.82,36.09,50.89,36.17L50.89,36.17z"/>
	</g>
	<g>
		<path class="st0" d="M51.24,35.91c0.12,0.13,0.25,0.26,0.37,0.39c0.11,0.11,0.22,0.27,0.37,0.34c0.08,0.04,0.16-0.04,0.12-0.12
			c-0.06-0.15-0.22-0.26-0.33-0.38c-0.13-0.13-0.25-0.25-0.38-0.38C51.29,35.66,51.14,35.81,51.24,35.91L51.24,35.91z"/>
	</g>
	<g>
		<path class="st0" d="M51.65,35.5c0.12,0.12,0.24,0.24,0.36,0.36c0.04,0.04,0.09-0.02,0.06-0.06c-0.12-0.12-0.24-0.24-0.36-0.36
			C51.67,35.39,51.61,35.46,51.65,35.5L51.65,35.5z"/>
	</g>
	<g>
		<path class="st0" d="M51.89,34.77c0.12,0,0.12-0.19,0-0.19C51.77,34.58,51.77,34.77,51.89,34.77L51.89,34.77z"/>
	</g>
	<g>
		<path class="st0" d="M52.36,28.16c0.09,0.26,0.24,0.58,0.49,0.7c0.09,0.04,0.18-0.04,0.13-0.13c-0.06-0.11-0.15-0.19-0.22-0.29
			c-0.07-0.1-0.13-0.22-0.18-0.34C52.53,27.95,52.3,28.01,52.36,28.16L52.36,28.16z"/>
	</g>
	<g>
		<path class="st0" d="M52.77,28.04c0.14,0.12,0.28,0.3,0.45,0.37c0.06,0.03,0.15-0.03,0.1-0.1c-0.11-0.16-0.31-0.26-0.47-0.38
			C52.8,27.88,52.71,27.98,52.77,28.04L52.77,28.04z"/>
	</g>
	<g>
		<path class="st0" d="M67.34,28.11c0.13,0.19,0.37,0.43,0.62,0.39c0.07-0.01,0.08-0.11,0.04-0.15c-0.07-0.07-0.16-0.1-0.25-0.15
			c-0.09-0.06-0.17-0.13-0.24-0.22C67.44,27.88,67.27,28.01,67.34,28.11L67.34,28.11z"/>
	</g>
	<g>
		<path class="st0" d="M67.51,27.69c0.1,0.1,0.19,0.22,0.31,0.29c0.07,0.04,0.16-0.04,0.12-0.12c-0.07-0.12-0.19-0.22-0.29-0.31
			C67.56,27.46,67.42,27.6,67.51,27.69L67.51,27.69z"/>
	</g>
	<g>
		<path class="st0" d="M37.04,33.98c0.12,0.11,0.24,0.23,0.33,0.37c0.08,0.12,0.14,0.25,0.23,0.36c0.04,0.04,0.1,0,0.09-0.05
			c-0.04-0.14-0.14-0.27-0.23-0.38c-0.11-0.13-0.23-0.25-0.37-0.36C37.06,33.89,37,33.95,37.04,33.98L37.04,33.98z"/>
	</g>
	<g>
		<path class="st0" d="M37.2,33.14c0.15,0.3,0.38,0.7,0.72,0.81c0.06,0.02,0.11-0.05,0.08-0.1c-0.08-0.14-0.21-0.24-0.32-0.36
			c-0.12-0.13-0.22-0.28-0.31-0.44C37.3,32.94,37.14,33.03,37.2,33.14L37.2,33.14z"/>
	</g>
	<g>
		<path class="st0" d="M37.63,32.46c0.13,0.14,0.25,0.28,0.38,0.42c0.11,0.12,0.22,0.3,0.37,0.38c0.07,0.04,0.19-0.03,0.15-0.12
			c-0.06-0.16-0.21-0.29-0.33-0.41c-0.13-0.15-0.27-0.3-0.4-0.44C37.7,32.16,37.52,32.34,37.63,32.46L37.63,32.46z"/>
	</g>
	<g>
		<path class="st0" d="M37.8,31.57c0.13,0.13,0.25,0.25,0.38,0.38c0.11,0.11,0.23,0.27,0.37,0.34c0.07,0.04,0.14-0.04,0.11-0.11
			c-0.07-0.14-0.23-0.25-0.34-0.37c-0.13-0.13-0.25-0.25-0.38-0.38C37.84,31.36,37.71,31.49,37.8,31.57L37.8,31.57z"/>
	</g>
	<g>
		<path class="st0" d="M38.21,30.79c0.19,0.19,0.37,0.44,0.61,0.58c0.08,0.05,0.19-0.05,0.13-0.13c-0.14-0.23-0.39-0.42-0.58-0.61
			C38.27,30.54,38.11,30.69,38.21,30.79L38.21,30.79z"/>
	</g>
	<g>
		<path class="st0" d="M38.31,29.9c0.19,0.2,0.38,0.4,0.6,0.57c0.04,0.03,0.1-0.03,0.07-0.07c-0.17-0.22-0.37-0.41-0.57-0.6
			C38.35,29.73,38.24,29.84,38.31,29.9L38.31,29.9z"/>
	</g>
	<g>
		<path class="st0" d="M38.14,28.92c0.14,0.17,0.28,0.38,0.47,0.49c0.05,0.03,0.13-0.02,0.11-0.08c-0.08-0.22-0.28-0.39-0.43-0.56
			C38.2,28.67,38.06,28.82,38.14,28.92L38.14,28.92z"/>
	</g>
	<g>
		<path class="st0" d="M64.7,20.35c0.2,0.25,0.4,0.55,0.68,0.72c0.07,0.04,0.13-0.04,0.1-0.1c-0.13-0.29-0.41-0.53-0.63-0.76
			C64.75,20.11,64.62,20.25,64.7,20.35L64.7,20.35z"/>
	</g>
	<g>
		<path class="st0" d="M65.17,20.32c0.11,0.12,0.22,0.24,0.33,0.36c0.11,0.12,0.21,0.25,0.34,0.35c0.03,0.03,0.09-0.01,0.06-0.05
			c-0.08-0.13-0.2-0.24-0.3-0.36c-0.11-0.13-0.23-0.26-0.34-0.38C65.2,20.17,65.12,20.26,65.17,20.32L65.17,20.32z"/>
	</g>
	<g>
		<path class="st0" d="M65.66,20.22c0.26,0.16,0.49,0.34,0.73,0.53c0.05,0.04,0.13-0.01,0.09-0.07c-0.2-0.27-0.44-0.46-0.72-0.63
			C65.65,19.98,65.55,20.16,65.66,20.22L65.66,20.22z"/>
	</g>
	<g>
		<path class="st0" d="M66.64,20.04c0.13,0.16,0.24,0.36,0.4,0.5c0.06,0.06,0.15-0.01,0.11-0.09c-0.09-0.18-0.24-0.34-0.36-0.5
			C66.72,19.87,66.58,19.95,66.64,20.04L66.64,20.04z"/>
	</g>
</g>
</svg>
