<?xml version="1.0" encoding="utf-8"?>
<!-- Generator: Adobe Illustrator 24.0.1, SVG Export Plug-In . SVG Version: 6.00 Build 0)  -->
<svg version="1.1" id="Layer_1" xmlns="http://www.w3.org/2000/svg" xmlns:xlink="http://www.w3.org/1999/xlink" x="0px" y="0px"
	 viewBox="0 0 360 360" style="enable-background:new 0 0 360 360;" xml:space="preserve">
<style type="text/css">
	.st0{fill:#DA2128;stroke:#DA2228;stroke-width:0.5;stroke-miterlimit:10;}
	.st1{fill:#DA2128;}
	.st2{fill:#FFFFFF;}
	.st3{fill-rule:evenodd;clip-rule:evenodd;}
	.st4{fill:none;stroke:#DA2228;stroke-width:0.75;stroke-miterlimit:10;}
	.st5{fill:#DA2128;stroke:#DA2128;stroke-width:0.5;stroke-miterlimit:10;}
	.st6{fill:#DA2229;}
</style>
<g>
	<g>
		<g>
			<path class="st0" d="M68.15,148.53l1.31-4.35l21.47-1.39l-1.33,4.4l-4.74,0.16l-2.18,7.21l3.84,2.81l-1.3,4.3L68.15,148.53z
				 M79.86,152.5l1.51-5l-7.81,0.3l-0.02,0.05L79.86,152.5z"/>
			<path class="st0" d="M78.14,124.1l2.27-3.94l21.23,3.51l-2.29,3.99l-4.65-0.92l-3.76,6.53l3.1,3.61l-2.24,3.89L78.14,124.1z
				 M88.65,130.63l2.6-4.53l-7.68-1.48l-0.03,0.05L88.65,130.63z"/>
			<path class="st0" d="M89.64,106.22l4.38-4.44l13.18,6.37l0.04-0.04l-6.74-12.9l4.38-4.44l14.35,14.14l-2.91,2.96l-10.17-10.02
				l-0.04,0.04l6.71,13.54l-2.4,2.43l-13.54-6.4l-0.04,0.04l10.07,9.92l-2.91,2.96L89.64,106.22z"/>
			<path class="st0" d="M118.8,81.24l3.91-2.32l16.78,13.47l-3.95,2.35l-3.6-3.08l-6.48,3.85l0.93,4.66l-3.86,2.29L118.8,81.24z
				 M124.75,92.08l4.49-2.67l-5.96-5.06l-0.05,0.03L124.75,92.08z"/>
			<path class="st0" d="M150.39,67.49l3.92-0.81l2.18,10.59l3.89-6.16l4.64-0.96l-4.31,6.36l7.86,7.81l-4.75,0.98l-5.24-5.58
				l-1.22,1.78l1.01,4.92l-3.92,0.81L150.39,67.49z"/>
			<path class="st0" d="M172.37,76.84c-0.02-1.17,0.14-2.23,0.48-3.18c0.34-0.96,0.84-1.77,1.48-2.45c0.65-0.68,1.43-1.21,2.35-1.59
				c0.92-0.38,1.95-0.58,3.1-0.6c1.15-0.02,2.19,0.15,3.13,0.5c0.94,0.35,1.74,0.86,2.41,1.51c0.67,0.66,1.19,1.46,1.56,2.4
				c0.37,0.94,0.57,2,0.59,3.17c0.02,1.17-0.14,2.22-0.49,3.17c-0.34,0.95-0.84,1.76-1.48,2.44c-0.65,0.68-1.43,1.21-2.36,1.59
				c-0.93,0.38-1.96,0.58-3.11,0.6c-1.15,0.02-2.19-0.15-3.11-0.5c-0.93-0.35-1.73-0.86-2.4-1.51c-0.67-0.66-1.19-1.45-1.56-2.39
				C172.58,79.06,172.38,78.01,172.37,76.84z M176.37,76.78c0.01,0.58,0.08,1.15,0.2,1.7c0.12,0.55,0.32,1.05,0.6,1.49
				c0.28,0.44,0.65,0.78,1.1,1.04c0.45,0.26,1.02,0.38,1.7,0.37c0.68-0.01,1.24-0.15,1.7-0.42c0.46-0.27,0.82-0.63,1.08-1.08
				c0.27-0.45,0.45-0.95,0.55-1.5c0.1-0.56,0.15-1.13,0.14-1.71c-0.01-0.58-0.08-1.16-0.2-1.72c-0.12-0.56-0.32-1.06-0.6-1.49
				c-0.28-0.43-0.65-0.77-1.12-1.04c-0.47-0.26-1.04-0.39-1.71-0.38s-1.24,0.16-1.69,0.44c-0.45,0.28-0.8,0.64-1.07,1.08
				c-0.27,0.44-0.45,0.94-0.56,1.5C176.41,75.62,176.36,76.2,176.37,76.78z"/>
			<path class="st0" d="M216.17,69.57l4.29,1.5l0.48,21.51l-4.34-1.51l0.04-4.74l-7.12-2.48l-2.97,3.72l-4.24-1.48L216.17,69.57z
				 M211.7,81.11l4.93,1.72l0.04-7.82l-0.05-0.02L211.7,81.11z"/>
			<path class="st0" d="M243.23,90.61c0.21-0.47,0.32-0.95,0.33-1.45c0.01-0.5-0.07-0.99-0.23-1.47c-0.16-0.48-0.4-0.93-0.72-1.35
				c-0.32-0.42-0.71-0.78-1.17-1.07c-0.84-0.54-1.65-0.84-2.45-0.89c-0.79-0.05-1.55,0.08-2.26,0.39c-0.71,0.31-1.38,0.76-1.99,1.35
				s-1.16,1.26-1.64,2c-0.46,0.71-0.82,1.46-1.09,2.24c-0.27,0.78-0.39,1.56-0.37,2.33c0.02,0.77,0.21,1.51,0.59,2.21
				c0.38,0.7,0.98,1.32,1.82,1.86c1.14,0.73,2.26,0.95,3.35,0.66c1.09-0.29,2.07-0.95,2.94-1.99l3.61,2.32
				c-0.78,1-1.64,1.8-2.58,2.4c-0.95,0.6-1.94,0.99-2.97,1.18c-1.04,0.18-2.09,0.16-3.17-0.08c-1.08-0.24-2.14-0.69-3.19-1.36
				c-1.31-0.85-2.34-1.83-3.07-2.95c-0.73-1.12-1.2-2.31-1.41-3.55c-0.2-1.25-0.15-2.53,0.16-3.85c0.31-1.32,0.86-2.59,1.64-3.81
				c0.8-1.25,1.75-2.3,2.83-3.15c1.08-0.85,2.24-1.45,3.47-1.8c1.23-0.35,2.51-0.42,3.83-0.22c1.32,0.2,2.64,0.73,3.96,1.57
				c0.93,0.6,1.73,1.3,2.39,2.11c0.66,0.8,1.15,1.67,1.48,2.61s0.46,1.92,0.4,2.96c-0.06,1.03-0.35,2.08-0.87,3.13L243.23,90.61z"/>
			<path class="st0" d="M258.52,94l3.05,3.22l-5.62,5.32l5.61,5.92l5.62-5.32l3.05,3.22l-14.64,13.85l-3.05-3.22l6.31-5.98
				l-5.61-5.92l-6.31,5.98l-3.05-3.22L258.52,94z"/>
			<path class="st0" d="M279.54,120.07l2.27,3.93l-13.68,16.6l-2.3-3.98l3.12-3.56l-3.77-6.53l-4.68,0.88l-2.24-3.89L279.54,120.07z
				 M268.62,125.89l2.61,4.52l5.13-5.9l-0.03-0.05L268.62,125.89z"/>
			<path class="st0" d="M288.96,138.85l3.11,10.41c0.26,0.87,0.35,1.69,0.28,2.46c-0.07,0.78-0.28,1.49-0.62,2.13
				c-0.34,0.64-0.79,1.19-1.36,1.64c-0.57,0.45-1.22,0.79-1.94,1.01c-1.14,0.34-2.19,0.39-3.16,0.16c-0.97-0.23-1.84-0.82-2.59-1.77
				l-0.05,0.02c0.01,0.57-0.08,1.06-0.28,1.5s-0.47,0.82-0.82,1.16c-0.35,0.34-0.75,0.63-1.2,0.87c-0.45,0.24-0.91,0.45-1.39,0.63
				c-0.3,0.11-0.66,0.23-1.07,0.38c-0.41,0.14-0.82,0.3-1.23,0.47c-0.41,0.17-0.8,0.37-1.17,0.58c-0.37,0.22-0.66,0.47-0.87,0.74
				l-1.27-4.25c0.27-0.22,0.58-0.41,0.93-0.59c0.35-0.17,0.72-0.34,1.11-0.51c0.39-0.17,0.8-0.33,1.21-0.48
				c0.42-0.15,0.8-0.31,1.17-0.48c0.97-0.45,1.61-0.97,1.94-1.58c0.33-0.61,0.33-1.44,0.02-2.51l-1.27-4.25l-7.55,2.25l-1.27-4.25
				L288.96,138.85z M281.49,145.7l1.39,4.65c0.28,0.96,0.72,1.62,1.3,1.98c0.58,0.37,1.36,0.4,2.33,0.11
				c0.94-0.28,1.55-0.73,1.82-1.35c0.28-0.62,0.27-1.41-0.01-2.37l-1.39-4.65L281.49,145.7z"/>
		</g>
	</g>
	<g>
		<path class="st1" d="M237.12,212.47c-2.5,9.57-6.53,18.3-11.73,25.74c-11.02,15.78-27.32,25.76-45.49,25.76
			c-24.6,0-40.47-19.53-36.84-15.92c2.14-0.84,31.25-11.48,33.49-12.22c31.31-10.26,59.47-22.89,59.47-22.89L237.12,212.47"/>
		<path d="M133.38,203.35l0.15-0.27c1.05-1.97,4.5-2.81,7.47-3.28c6.6-1.05,8.84-3.16,16.6-4.47c0,0,1.89-0.58,3.26-1.27
			c0.12-0.43,0.5-0.75,0.97-0.77c-0.05-0.11-0.08-0.23-0.08-0.36c0-0.46,0.37-0.82,0.82-0.82c0.08,0,0.16,0.01,0.23,0.03
			c0.21-0.6,0.83-2.81-0.14-6.09c-0.48-1.14-1.22-2.61-2.16-3.48c-1.53-1.41-3.68-4.8-4.13-5.52l-0.03-0.06l-0.05-0.07
			c0,0-3.29,0.26-3.16-3.82c0,0-2.53-0.74-1.71-2.89c0.53-1.38,1.05-1.32,1.05-1.32c-3.31-4.61-4.63-8.86-3.95-12.76
			c0,0,0,0.09,0,0.27c0.26-1.16,0.77-1.64,0.94-1.77c-0.06-0.23-0.12-0.85,0.05-2.57c0.26-2.57,1.19-4.21,1.52-5.46
			c0.33-1.25-0.2-2.37-1.58-4.73c-1.38-2.37-1.31-6.65-0.79-8.42c0.53-1.78,0.85-3.81,0.99-5.06c0.13-1.25,0.33-2.83,1.12-5.72
			c0.79-2.89,1.58-2.37,1.71-4.67c0.13-2.3,1.38-3.49,1.71-4.87c0.33-1.38,2.57-4.14,3.03-4.74c0.46-0.59,0.46-0.46,0.86-1.71
			c0.4-1.25,0.59-1.78,1.51-2.17c0.92-0.39,0.79-0.86,1.38-1.51c0.59-0.66,0.66-0.33,1.58-0.59c0.92-0.26,1.38-0.72,1.97-1.51
			c0.59-0.79,1.85-0.85,2.63-0.85c0.79,0,2.89-1.12,2.89-1.12s1.51-0.99,2.57-1.25c1.05-0.26,2.11,0.99,2.3,0.2
			c0.2-0.79,0.59-0.99,0.66-1.51c0.07-0.52,0.85-0.2,0.85-0.2s1.12-0.2,1.58,0c0.46,0.2,0.73,0.46,1.38,0.2
			c0.66-0.26,1.64-0.33,3.22,0.99c1.58,1.32,1.91,1.51,1.91,1.51c5.59-0.53,9.61,3.68,10.72,4.27c1.12,0.59,2.9,0.92,4.67,1.51
			c1.78,0.59,0.99,1.38,3.42,3.55c2.43,2.17-0.53,5.13,4.01,9.21c4.54,4.08,5.26,9.8,5.72,11.64c0.46,1.84-2.63,6.51-1.25,7.04
			c1.38,0.53,1.31,3.16,1.71,3.95c0.39,0.79,0.92,1.58,0.72,3.62c-0.2,2.04,1.12,3.22,1.97,5.2c0.45,1.04,0.35,1.96,0.16,2.61
			c-0.03,0.64-0.36,0.94-0.36,0.94c0.43,1.08,0.77,3.68-0.28,6.15c-0.92,2.17-2.5,6.28-2.5,6.28s1.07,0.36,1.03,1.58
			c-0.05,1.88-0.92,1.84-0.92,1.84c0.59,2.27-0.49,3.06-0.49,3.06c-2.41,0.98-2.86-1.67-2.94-2.47c-0.22,0.94-0.41,1.72-0.41,1.72
			l-1.12,3.68c-0.78,2.41-1.72,4.98-2.63,6.38c-0.69,1.05-1.14,9.31-1.14,10.54c0.06-0.02,0.12-0.02,0.19-0.02
			c0.4,0,0.73,0.28,0.81,0.66c0.53,0.01,0.96,0.42,1,0.94c0.42,0.17,0.73,0.58,0.73,1.07c0,0.06-0.01,0.13-0.02,0.19
			c0.21,0.14,0.37,0.34,0.46,0.58l14.92,4.84c0.73,0.14,1.49,0.29,2.27,0.42l0.39,0.24l5.27-0.11c0,0,2.9,1.97,1.05,2.89
			c-1.84,0.92-32.76,21.7-33.55,22.1c-0.79,0.39-11.71,3.29-19.61,3.42c-7.89,0.13-11.18-0.26-18.55,0.39
			c-7.37,0.66-11.18,0.92-11.18,0.92s-10.92,3.42-11.32-0.92c-0.4-4.34-4.21-25.39-4.21-25.39H133.38"/>
		<path class="st2" d="M160.71,181.65c-1.3-1.58-2.59-3.47-3.31-4.56l-0.62-1.03c-0.71-1.55-2.02-5.24-2.2-5.86
			c-0.87-2.98-1.59-8.18-1.89-10.53c0-1.37-0.05-3.54-0.34-4.86c-0.46-2.04-0.2-5.46,0.72-7.63c0.92-2.17,1.84-6.91,3.62-9.47
			c1.78-2.57,2.04-5.53,2.17-6.25c0.13-0.72,0.39-2.17,1.38-3.22c0.99-1.05,1.85-2.24,2.04-3.22c0.2-0.99,1.18-8.42,9.34-6.91
			c8.16,1.51,7.5-0.46,7.5-0.46s2.83-2.17,4.41-2.17c1.58,0,4.8,0.46,6.18,1.05c1.38,0.59,5.13,2.63,7.7,5.72
			c2.56,3.09,4.41,6.91,4.94,8.29c0.52,1.38,3.09,5.66,3.88,6.58c0.79,0.92,2.57,5.26,2.83,6.64c0.26,1.38,1.86,7.26,1.99,10.27
			c0.48,10.62-3.08,20.26-3.35,20.99c-0.79,1.95-1.76,4.09-2.85,5.96l-0.04,0.67c-0.53,0.9-1.37,2.43-2.1,4.2
			c-1.17,2.85-4.39,5.57-7.14,7.78c-2.74,2.21-8.42,6.31-8.42,6.31s2.53-1.25,3.46-1.78c0.93-0.53,4.1-3.25,5.78-4.32
			c1.68-1.06,6.53-5.99,7.06-8.1c0.29-1.14,0.85-2.38,1.31-3.27c-0.15,2.41-0.42,7.06-0.55,8.91c-0.13,0.15-0.22,0.34-0.22,0.55
			c0,0.37,0.25,0.69,0.6,0.79l0,0.06c0,0.36,0.19,0.68,0.47,0.86c-0.01,0.04-0.01,0.09-0.01,0.13c0,0.34,0.15,0.64,0.38,0.86
			c-0.04,0.11-0.05,0.23-0.05,0.36c0,0.31,0.12,0.61,0.31,0.82c-0.03,0.1-0.05,0.22-0.05,0.33c0,0.33,0.13,0.62,0.35,0.83
			c-0.1,0.17-0.15,0.37-0.15,0.59c0,0.18,0.04,0.34,0.11,0.5c-0.19,0.22-0.31,0.51-0.31,0.82c0,0.28,0.09,0.53,0.24,0.74
			c-0.19,0.23-0.31,0.52-0.31,0.84c0,0.12,0.02,0.25,0.05,0.36c-0.49,0.2-0.84,0.69-0.84,1.25c0,0.2,0.04,0.4,0.12,0.56
			c-0.53,0.18-0.91,0.69-0.91,1.28c0,0.16,0.03,0.3,0.08,0.45c-0.72,0.12-1.26,0.74-1.26,1.49c0,0.21,0.04,0.41,0.12,0.6
			c-0.77,0.07-1.37,0.72-1.37,1.51c0,0.84,0.67,1.51,1.51,1.51c0.84,0,1.51-0.67,1.51-1.51c0-0.21-0.04-0.41-0.12-0.6
			c0.77-0.07,1.37-0.72,1.37-1.5c0-0.23-0.05-0.44-0.14-0.64c0.57-0.16,1-0.68,1-1.3c0-0.2-0.05-0.4-0.13-0.57
			c0.53-0.18,0.91-0.68,0.91-1.28c0-0.14-0.02-0.28-0.06-0.4c0.46-0.2,0.79-0.66,0.79-1.2c0-0.32-0.12-0.62-0.3-0.84
			c0.15-0.21,0.24-0.46,0.24-0.74c0-0.22-0.06-0.44-0.17-0.62c0.14-0.19,0.23-0.44,0.23-0.7c0-0.35-0.15-0.66-0.39-0.88
			c0.08-0.16,0.13-0.34,0.13-0.53c0-0.23-0.06-0.44-0.18-0.62c0.08-0.16,0.12-0.34,0.12-0.53c0-0.1-0.01-0.2-0.04-0.3
			c2.02,0.93,16.48,5.36,16.48,5.36l5,0.53l-31.18,20.79l-50.79,6.31l-11.71-21.7l-1.45-2.5c0.55-1.05,1.87-1.77,3.26-2.25
			c1.95-0.54,3.96-0.9,4.37-0.9c0.79,0,5.26-1.45,5.26-1.45s5.92-2.1,9.61-2.9c1.72-0.37,2.96-0.94,3.78-1.44
			c-0.3,0.24-0.48,0.6-0.48,1.01c0,0.27,0.08,0.51,0.22,0.72c-0.38,0.25-0.62,0.67-0.62,1.15c0,0.32,0.11,0.62,0.29,0.85
			c-0.22,0.26-0.35,0.6-0.35,0.96c0,0.42,0.17,0.8,0.45,1.06c-0.2,0.24-0.32,0.54-0.32,0.88c0,0.5,0.27,0.95,0.68,1.19
			c-0.26,0.25-0.41,0.6-0.41,0.98c0,0.56,0.33,1.04,0.81,1.26c-0.26,0.27-0.42,0.64-0.42,1.04c0,0.68,0.45,1.26,1.08,1.45
			c-0.1,0.2-0.16,0.42-0.16,0.65c0,0.75,0.58,1.38,1.31,1.44c-0.08,0.18-0.13,0.38-0.13,0.6c0,0.61,0.38,1.13,0.91,1.34
			c-0.04,0.13-0.06,0.26-0.06,0.4c0,0.75,0.61,1.35,1.38,1.35c-0.08,0.18-0.12,0.38-0.12,0.59c0,0.8,0.65,1.45,1.45,1.45
			c0.1,0,0.19-0.01,0.29-0.03c-0.1,0.21-0.16,0.44-0.16,0.69c0,0.87,0.71,1.58,1.58,1.58c0.22,0,0.43-0.05,0.62-0.13
			c-0.02,0.09-0.03,0.19-0.03,0.29c0,0.78,0.64,1.41,1.42,1.41c0.29,0,0.56-0.09,0.78-0.24c-0.02,0.1-0.03,0.2-0.03,0.3
			c0,0.91,0.74,1.65,1.65,1.65c0.4,0,0.77-0.15,1.05-0.36c0,0.89,0.72,1.61,1.61,1.61c0.45,0,0.86-0.19,1.15-0.46
			c0,0.91,0.74,1.65,1.65,1.65c0.91,0,1.64-0.74,1.64-1.65c0-0.91-0.73-1.64-1.64-1.64c-0.47,0-0.89,0.19-1.19,0.5
			c0-0.89-0.72-1.61-1.61-1.61c-0.39,0-0.74,0.14-1.02,0.33c0-0.91-0.74-1.64-1.64-1.64c-0.37,0-0.72,0.12-0.99,0.33
			c0-0.06,0.01-0.11,0.01-0.17c0-0.78-0.63-1.41-1.42-1.41c-0.17,0-0.33,0.03-0.48,0.08c0.04-0.13,0.05-0.27,0.05-0.41
			c0-0.87-0.71-1.58-1.58-1.58c-0.13,0-0.26,0.01-0.38,0.05c0.08-0.18,0.12-0.37,0.12-0.57c0-0.8-0.65-1.45-1.45-1.45l-0.09,0
			c0.06-0.15,0.09-0.32,0.09-0.5c0-0.53-0.31-0.99-0.76-1.21c0.06-0.16,0.1-0.34,0.1-0.53c0-0.76-0.58-1.38-1.32-1.44
			c0.09-0.18,0.13-0.38,0.13-0.6c0-0.63-0.41-1.18-0.98-1.37c0.12-0.22,0.19-0.47,0.19-0.74c0-0.65-0.41-1.2-0.98-1.42
			c0.2-0.24,0.32-0.55,0.32-0.88c0-0.51-0.27-0.95-0.68-1.19c0.26-0.25,0.41-0.6,0.41-0.98c0-0.35-0.13-0.67-0.35-0.91
			c0.26-0.27,0.41-0.63,0.41-1.03c0-0.38-0.15-0.74-0.39-1c0.16-0.23,0.26-0.5,0.26-0.81c0-0.32-0.11-0.61-0.29-0.84
			c0.31-0.24,0.52-0.61,0.52-1.03c0-0.13-0.02-0.26-0.06-0.37c0.25-0.19,0.42-0.49,0.42-0.84c0-0.23-0.07-0.44-0.19-0.61
			c0.37-0.08,0.65-0.41,0.65-0.8c0-0.18-0.05-0.34-0.15-0.48c0.86-2.1,0.26-4.75-0.24-6.27l-0.03-0.09c0.41,0.3,3.27,2.54,7.65,8.32
			c5.14,6.78,11.05,5.92,11.05,5.92s-5-0.26-8.68-4.08c-3.66-3.79-6.41-9.08-10.06-10.82c-0.32-0.99-0.72-1.63-0.9-1.88
			c0.16,0.12,0.32,0.23,0.48,0.34l0.17,0.12c2.31,1.5,4.19,1.59,4.19,1.59C163.93,184.5,161.91,182.86,160.71,181.65 M162.52,183.88
			c0.07,0.05,0.13,0.09,0.17,0.12L162.52,183.88z M157.13,176.93l-0.02-0.06l0.16,0.27L157.13,176.93c0.01,0.03,0.01,0.04,0.01,0.04
			S157.13,176.96,157.13,176.93L157.13,176.93z"/>
		<path d="M167.88,143.39l0.05,0.02l0.24,0.01l-0.01-0.07L167.88,143.39 M172.3,145.48c0,0-0.58-0.32-1.31-0.08
			c-0.73,0.25-4.91,0.62-7.95,0.46c0,0-1.68,0.13-2.42,0.4c-0.46,0.17,0.26-0.68,1.5-1.49l-0.3-0.22l0.5,0.1
			c0.12-0.07,0.24-0.14,0.36-0.21l-0.2-0.22l0.52,0.05c0.12-0.07,0.25-0.13,0.37-0.19l-0.1-0.27l0.42,0.07
			c0.14-0.08,0.29-0.17,0.47-0.26l-0.29-0.22l0.46,0.15c0.19-0.09,0.4-0.18,0.63-0.26c-0.06-0.17-0.02-0.29-0.02-0.29
			c0.01,0.07,0.12,0.14,0.26,0.2c2.02-0.72,4.94-1.17,5.99,0.12c0,0-0.57-0.36-2.69-0.16c0.02,0.06,0.04,0.11,0.09,0.16
			c1.24,0.18,2.44,0.7,3.58,1.78C172.39,145.23,172.44,145.36,172.3,145.48z"/>
		<path class="st1" d="M167.47,167.17c0,0,0.43-0.01,2.1-1.18c2.17-1.51,5.96-3.98,10-2.37c0,0,0.39,0.05,0.57,0.14l-0.05,0.25
			l0.35-0.15c0.06,0.01,0.12,0.02,0.18,0.03c-0.1,0.22,0.93-0.16,0.93-0.16c0.14-0.06,0.29-0.14,0.44-0.24
			c1.17-0.76,1.94-1.24,3.55-1.18c4.93,0.16,5.92,2.43,8.75,3.29c0,0-1.18,0.59-2.11,1.71c-1.03,1.25-0.89,1.25-1.55,1.91
			c-0.63,0.63-3.34,2.94-6.22,3.62c-2.87,0.68-9.08,1.05-12.24-1.32c-1.99-1.49-3.7-2.86-4.18-3.33l-0.89,0.17l0.62-0.3
			C167.7,167.97,167.5,167.26,167.47,167.17"/>
		<path d="M190.75,140.94l0.07,0.23c0.23-0.04,0.46-0.08,0.71-0.11C191.26,141.01,191,140.97,190.75,140.94 M186.37,144.08
			c0,0,0.96-0.5,1.45-1.6c0.24-0.53,1.2-1.3,2.6-1.66l0.09-0.38c-1.49-0.16-2.82,0.28-2.82,0.28c1.64-0.95,3.16-0.99,4.56-0.11
			l0.18,0.01c0.13-0.22,0.25-0.5,0.23-0.82l0.06,0.84c0.11,0.01,0.23,0.03,0.35,0.05c0.25-0.25,0.57-0.61,0.58-0.93
			c0.02-0.54,0.18,0.47,0.18,0.47l-0.02,0.62c0.1,0.03,0.21,0.06,0.31,0.09c0.33-0.15,0.82-0.39,0.93-0.6
			c0.02-0.11,0.03-0.16,0.03-0.08c0,0.03-0.01,0.05-0.03,0.08c-0.03,0.21-0.09,0.64-0.12,0.92l0.22,0.1
			c0.25-0.16,0.64-0.43,0.77-0.67c0.16-0.28-0.09,0.53-0.22,0.97c0.09,0.05,0.19,0.11,0.28,0.17l0.7-0.18l0.24,0.76
			c0.34,0.21,0.71,0.43,1,0.59c0.2,0.11,0.34,0.19,0.43,0.22c0.41,0.16,0.23,0.69-0.07,0.68c-0.29-0.01-1.78-0.6-2.24-0.42
			c0.22-0.08-5.77,0.48-7.72,0.17C187.54,143.54,186.37,144.08,186.37,144.08z"/>
		<path class="st2" d="M149.75,154.86c1.69,1.11,2.8,5.89,2.8,5.54l0.19,2.43c0.27,4.07,2.56,11.11,3.35,13.44
			c-2.35,0.54-2.68-1.97-2.71-3.19c1.11-0.86,1.04-2.63,0.24-3.31c0,0,0.47,0.85,0.33,1.42c-0.22,0.87-0.56,1.25-0.56,1.25
			s-1.58-0.13-1.45-1.71c0.13-1.58,1.32-1.05,1.32-1.05s0-1.19-2.5-4.74c-1.34-1.91-1.89-4.3-2.1-6.12v-0.13
			C148.66,158.68,148.35,155.5,149.75,154.86"/>
		<path d="M149.46,154.61c0.03,0.11,0.06,0.12,0.06,0.12c0.08,0.04,0.16,0.08,0.23,0.13c0.05-0.03,0.11-0.05,0.16-0.06
			c1.58-0.46,0.36-0.56,0.36-0.56l-0.76,0.33C149.51,154.57,149.49,154.59,149.46,154.61"/>
		<polyline points="156.37,177.04 156.33,176.98 156.37,177.04 		"/>
		<path d="M149.46,154.61c0.03-0.03,0.06-0.04,0.06-0.04l0.76-0.33c0,0,1.22,0.1-0.36,0.56c-0.05,0.02-0.11,0.04-0.16,0.06
			c-0.08-0.05-0.15-0.09-0.23-0.13C149.51,154.73,149.48,154.72,149.46,154.61"/>
		<path d="M156.8,176.42l0.24,0.38C156.96,176.72,156.88,176.59,156.8,176.42"/>
		<path class="st2" d="M216.09,151.93c0.11-0.51,0.14-1.4-0.59-2.13c-1.12-1.12-1.38,0.86-2.3,1.12c-0.61,0.17-1.39,1.54-1.85,2.46
			c-0.02,0.69-0.12,5.1-0.06,5.83c0.07,0.79-0.53,5.72-0.79,7.04c-0.12,0.63-0.35,1.63-0.56,2.5c0.48,2.4,2.39,3.03,3.19,1.64
			c0.44-0.75-0.1-2.3-0.1-2.3s0.92,0.07,1.05-1.38c0.13-1.45-1.2-1.69-1.2-1.69s1.37-4,2.65-6.79c1.29-2.8,0.3-5.82,0.3-5.82
			C215.95,152.26,216.03,152.09,216.09,151.93"/>
		<path class="st2" d="M176.26,165.06c0.76-0.06,1.22,0.56,1.22,0.56s1.28-1.32,2.44-0.23c0.29,0.27,0.49,0.86,0.49,0.86
			s0.14-0.92,0.76-1.25c0.6-0.03,0.97-0.26,1.42-0.2c0.45,0.06,0.88,0.42,1.02,0.56c0,0,0.47-0.58,1.02-0.82
			c0.82-0.27,1.45,0.33,1.45,0.33c0.24-0.05,0.31-0.46,0.66-0.56c0.59-0.16,0.68,0.05,1.22,0.18c0.26,0.19,0.44,0.48,0.52,0.88
			c0,0,0.33-0.72,0.92-0.3c0.41,0.3,0.36,0.7,0.38,0.89c-0.01-0.29-0.02-0.96,0.21-0.98c0,0,0.98-0.16,1.02,0.56
			c0.79-0.13,1.31,0.39,1.31,0.39c-0.54,1.12-6.29,3.8-9.21,4.12c-8.97,1.01-10.32-0.31-11.54-0.6c-1.22-0.29-2.98-1.45-2.79-1.45
			c0.04,0,0.1-0.07,0.19-0.17c0.38-0.31,0.92-0.57,1.06-0.62c0.19-0.07,0.65-0.13,0.82,0.03c0,0,0.36-1.02,0.99-0.4
			c0.23-0.6,0.69-0.76,1.22-0.26c0.23-0.82,1.28-1.08,2.07-0.46C175.1,166.11,175.26,165.24,176.26,165.06"/>
		<path class="st2" d="M187.86,143.42c0,0,0.34-1.34,1.97-1.53c0,0,0.24,1.36,0.34,1.51c0.1,0.15-2.39,0.12-2.39,0.12L187.86,143.42
			"/>
		<path class="st2" d="M194.6,142.05c0,0,0.1,0.81,0.03,1.15c0,0,1.07,0.07,1.12-0.41C195.8,142.3,194.6,142.05,194.6,142.05"/>
		<path class="st2" d="M163.6,145.37c0,0-0.15-0.41,1-0.83c0,0,0.36-0.17,0.46-0.05c0.1,0.12,0.36,1.09,0.25,1.05
			C165.01,145.44,163.74,145.92,163.6,145.37"/>
		<path class="st2" d="M169.3,145.39c0,0,0.24-0.68,0.15-1.22c-0.01-0.03-0.01-0.06-0.02-0.09c0,0,0.8-0.02,1.85,0.75
			c0,0,0.12,0.29-1.15,0.49L169.3,145.39"/>
		<path class="st1" d="M177.63,137.82c0-0.55,0.45-1,1-1c0.55,0,1,0.45,1,1c0,0.55-0.45,1-1,1
			C178.08,138.82,177.63,138.37,177.63,137.82"/>
		<path d="M201.69,141.1c0,0-4.14-3.91-5.11-3.96c-0.98-0.05-5.95-0.89-8.38,0.2c-2.85,1.28-2.58-0.66-2.14-1.01
			c0.44-0.36,1.32-1.27,2.82-1.27c1.51,0,2.58-0.56,4.83,0.1c2.24,0.66,2.36-0.06,3.36,0.61
			C198.96,137.04,201.69,141.1,201.69,141.1"/>
		<path d="M156.99,144.75c0,0,3.07-5.6,7.36-5.65c4.29-0.05,5.31,0.27,6.43,0c1.12-0.27,0.2-1.94-1.17-1.83
			c-1.36,0.11-2.29,0.11-3.17,0.21c-0.7,0.09-2.48,0.32-2.83,0.22c-0.34-0.11-0.77-0.08-1.75,0.48
			C158.65,140.02,156.99,144.75,156.99,144.75"/>
		<path d="M173.79,156.18c0,0,1.51-1.06,3.98-0.36c0.85,0.24,0.59,0.65,0.18,0.63c-0.29-0.02-1.86-0.28-2.75-0.43
			C174.84,155.96,173.79,156.18,173.79,156.18"/>
		<path class="st2" d="M186.29,170.78c-0.25-0.25-2.42-0.24-3.67,0.16c-1.25,0.4-3.1,1.01-1.81,1.73c1.29,0.73,5.24-0.36,5.48-0.96
			C186.53,171.11,186.53,171.02,186.29,170.78"/>
		<path d="M213.23,168.29l0.3-0.4c0,0-1.69,0.26-1.14-2.32c0.01-0.04,0.02-0.07,0.03-0.11
			C211.59,166.88,211.86,167.82,213.23,168.29"/>
		<path class="st3" d="M171.75,169.54c0,0,1.08,0.23,1.65-0.22c0.42-0.33,0.51,0.17,0.51,0.17s0.39,0.48,0.92,0.48
			c0.53,0,0.28,0.01,0.28,0.01c0.23,0.17,1.11,0.41,0.49,0.39C174.29,170.39,172.21,169.67,171.75,169.54"/>
		<path class="st3" d="M187.08,168.91l0.18-0.79c0,0,0.84,0.09,1.01-0.19c0.02-0.03-0.03-0.1-0.03-0.1s0.24,0.38,0.89,0.22
			c0.65-0.15,0.51-0.32,0.51-0.32s0.27,0.06,0.4,0.03C189.04,168.33,187.96,168.59,187.08,168.91"/>
		<path class="st3" d="M180.7,170.29c0,0,0.17-0.13,0.26-0.3c0,0,0.2,0.3,0.39,0.3H180.7"/>
		<path class="st2" d="M203.06,206.7c-0.69,0-1.25,0.56-1.25,1.25c0,0.69,0.56,1.25,1.25,1.25c0.69,0,1.25-0.56,1.25-1.25
			C204.31,207.26,203.75,206.7,203.06,206.7"/>
		<path class="st2" d="M177.54,219.86c-0.76,0-1.38,0.62-1.38,1.38c0,0.76,0.62,1.38,1.38,1.38c0.76,0,1.38-0.62,1.38-1.38
			C178.92,220.47,178.3,219.86,177.54,219.86"/>
		<path d="M160.71,194.38c0.04-0.02,0.08-0.04,0.11-0.05L160.71,194.38"/>
		<path class="st2" d="M174.74,218.74c-0.74,0-1.35,0.6-1.35,1.35c0,0.74,0.61,1.35,1.35,1.35c0.74,0,1.35-0.6,1.35-1.35
			C176.09,219.34,175.49,218.74,174.74,218.74"/>
		<path class="st2" d="M169.68,216.17c-0.64,0-1.15,0.52-1.15,1.15c0,0.63,0.51,1.15,1.15,1.15c0.63,0,1.15-0.52,1.15-1.15
			C170.83,216.69,170.31,216.17,169.68,216.17"/>
		<path class="st2" d="M162.57,192.36c0.31,0,0.56,0.25,0.56,0.56c0,0.31-0.25,0.56-0.56,0.56c-0.03,0-0.06,0-0.09-0.01
			c-0.09-0.06-0.19-0.11-0.3-0.15c-0.11-0.1-0.18-0.24-0.18-0.41C162.01,192.61,162.26,192.36,162.57,192.36"/>
		<path class="st2" d="M161.28,194.25c-0.06,0-0.12,0-0.18,0.01c0.04-0.4,0.37-0.72,0.79-0.72c0.43,0,0.79,0.35,0.79,0.79
			c0,0.23-0.1,0.44-0.26,0.59C162.19,194.52,161.77,194.25,161.28,194.25"/>
		<path class="st2" d="M161.28,194.48c0.59,0,1.07,0.48,1.07,1.07c0,0.35-0.18,0.67-0.45,0.86c-0.25-0.23-0.58-0.37-0.94-0.37
			c-0.2,0-0.39,0.04-0.55,0.12c-0.12-0.17-0.2-0.39-0.2-0.61C160.21,194.96,160.69,194.48,161.28,194.48"/>
		<path class="st2" d="M160.96,196.31c0.62,0,1.12,0.5,1.12,1.12c0,0.23-0.07,0.45-0.2,0.63c-0.25-0.19-0.56-0.3-0.89-0.3
			c-0.36,0-0.68,0.12-0.93,0.33c-0.14-0.18-0.22-0.41-0.22-0.66C159.84,196.81,160.34,196.31,160.96,196.31"/>
		<path class="st2" d="M160.99,198.02c0.67,0,1.22,0.55,1.22,1.21c0,0.33-0.13,0.63-0.34,0.85c-0.23-0.18-0.53-0.29-0.84-0.29
			c-0.33,0-0.64,0.12-0.88,0.31c-0.23-0.22-0.37-0.53-0.37-0.88C159.78,198.56,160.32,198.02,160.99,198.02"/>
		<path class="st2" d="M161.03,200.06c0.62,0,1.12,0.5,1.12,1.12c0,0.35-0.16,0.66-0.41,0.86c-0.14-0.05-0.29-0.07-0.45-0.07
			c-0.28,0-0.53,0.08-0.75,0.22c-0.37-0.18-0.63-0.57-0.63-1.01C159.91,200.56,160.41,200.06,161.03,200.06"/>
		<path class="st2" d="M161.82,204.4c0.69,0,1.25,0.56,1.25,1.25c0,0.25-0.07,0.48-0.19,0.67c-0.07-0.01-0.13-0.01-0.2-0.01
			c-0.46,0-0.88,0.22-1.14,0.56c-0.55-0.13-0.96-0.62-0.96-1.22C160.57,204.96,161.13,204.4,161.82,204.4"/>
		<path class="st2" d="M161.29,202.23c0.62,0,1.12,0.5,1.12,1.12c0,0.32-0.14,0.6-0.35,0.81c-0.08-0.01-0.16-0.02-0.25-0.02
			c-0.32,0-0.62,0.1-0.87,0.28c-0.45-0.15-0.77-0.57-0.77-1.06C160.17,202.73,160.67,202.23,161.29,202.23"/>
		<path class="st2" d="M162.67,206.57c0.65,0,1.19,0.53,1.19,1.18c0,0.22-0.06,0.43-0.17,0.6c-0.41,0.05-0.77,0.26-1,0.58
			c-0.67,0-1.2-0.53-1.2-1.18C161.49,207.1,162.02,206.57,162.67,206.57"/>
		<path class="st2" d="M163.86,208.61c0.65,0,1.18,0.53,1.18,1.18c0,0.15-0.03,0.3-0.08,0.44c-0.11-0.03-0.22-0.04-0.34-0.04
			c-0.51,0-0.96,0.29-1.19,0.71c-0.44-0.18-0.76-0.6-0.76-1.1C162.67,209.14,163.2,208.61,163.86,208.61"/>
		<path class="st2" d="M164.61,210.45c0.6,0,1.08,0.49,1.08,1.08c0,0.21-0.05,0.39-0.15,0.55c-0.3,0.09-0.56,0.27-0.74,0.52
			c-0.06,0.01-0.13,0.02-0.19,0.02c-0.6,0-1.08-0.49-1.08-1.09C163.53,210.94,164.01,210.45,164.61,210.45"/>
		<path class="st2" d="M165.96,212.29c0.65,0,1.19,0.53,1.19,1.18c0,0.28-0.09,0.53-0.26,0.73c-0.15,0.09-0.29,0.2-0.4,0.33
			c-0.16,0.08-0.34,0.13-0.53,0.13c-0.65,0-1.18-0.53-1.18-1.18C164.78,212.82,165.31,212.29,165.96,212.29"/>
		<path class="st2" d="M167.67,214.26c0.73,0,1.32,0.59,1.32,1.32c0,0.22-0.05,0.42-0.14,0.6c-0.17,0.13-0.31,0.29-0.41,0.47
			c-0.21,0.15-0.48,0.24-0.76,0.24c-0.73,0-1.32-0.59-1.32-1.31C166.35,214.85,166.94,214.26,167.67,214.26"/>
		<path class="st2" d="M172.08,217.42c0.76,0,1.38,0.62,1.38,1.38c0,0.13-0.02,0.26-0.05,0.38c-0.09,0.13-0.15,0.27-0.2,0.42
			c-0.25,0.35-0.67,0.58-1.13,0.58c-0.77,0-1.38-0.62-1.38-1.38C170.7,218.04,171.31,217.42,172.08,217.42"/>
		<path class="st2" d="M204.81,191.37c0.26,0,0.48,0.18,0.54,0.43c-0.34,0.08-0.61,0.34-0.72,0.66c-0.22-0.07-0.38-0.28-0.38-0.53
			C204.25,191.62,204.5,191.37,204.81,191.37"/>
		<path class="st2" d="M205.6,192.03c0.37,0,0.67,0.26,0.74,0.6c-0.05-0.01-0.1-0.01-0.15-0.01c-0.49,0-0.91,0.31-1.08,0.75
			c-0.17-0.14-0.27-0.35-0.27-0.58C204.84,192.37,205.18,192.03,205.6,192.03"/>
		<path class="st2" d="M206.19,192.89c0.49,0,0.89,0.39,0.89,0.89l0,0.05c-0.14-0.06-0.3-0.09-0.46-0.09
			c-0.46,0-0.87,0.26-1.09,0.63c-0.14-0.16-0.23-0.37-0.23-0.6C205.3,193.28,205.7,192.89,206.19,192.89"/>
		<path class="st2" d="M206.62,194c0.54,0,0.98,0.44,0.98,0.99c0,0.1-0.02,0.21-0.04,0.3c-0.21-0.19-0.48-0.3-0.78-0.3
			c-0.42,0-0.78,0.22-0.98,0.55c-0.11-0.15-0.17-0.34-0.17-0.55C205.63,194.45,206.07,194,206.62,194"/>
		<path class="st2" d="M206.78,195.25c0.49,0,0.89,0.39,0.89,0.89c0,0.14-0.03,0.26-0.08,0.38c-0.17-0.09-0.37-0.15-0.58-0.15
			c-0.34,0-0.66,0.15-0.87,0.38c-0.16-0.16-0.25-0.38-0.25-0.61C205.89,195.65,206.29,195.25,206.78,195.25"/>
		<path class="st2" d="M207.01,196.64c0.51,0,0.92,0.41,0.92,0.92c0,0.17-0.05,0.33-0.13,0.47c-0.23-0.25-0.56-0.41-0.92-0.41
			c-0.28,0-0.53,0.09-0.74,0.24c-0.04-0.1-0.05-0.2-0.05-0.31C206.09,197.05,206.5,196.64,207.01,196.64"/>
		<path class="st2" d="M206.88,197.88c0.54,0,0.99,0.44,0.99,0.99c0,0.21-0.06,0.39-0.17,0.55c-0.22-0.18-0.51-0.29-0.82-0.29
			c-0.31,0-0.59,0.11-0.82,0.29c-0.11-0.16-0.17-0.35-0.17-0.55C205.89,198.33,206.33,197.88,206.88,197.88"/>
		<path class="st2" d="M206.88,199.4c0.58,0,1.05,0.47,1.05,1.05c0,0.43-0.26,0.8-0.63,0.96c-0.23-0.42-0.67-0.7-1.18-0.7
			c-0.09,0-0.17,0.01-0.26,0.02c-0.02-0.09-0.04-0.19-0.04-0.29C205.83,199.87,206.3,199.4,206.88,199.4"/>
		<path class="st2" d="M206.12,200.98c0.6,0,1.09,0.49,1.09,1.08c0,0.5-0.33,0.91-0.79,1.05c-0.24-0.33-0.64-0.55-1.09-0.55
			c-0.06,0-0.11,0-0.17,0.01c-0.08-0.15-0.12-0.32-0.12-0.51C205.04,201.47,205.52,200.98,206.12,200.98"/>
		<path class="st2" d="M206.42,203.9c0,0.53-0.37,0.96-0.87,1.06c-0.27-0.38-0.71-0.63-1.21-0.64c-0.06-0.13-0.09-0.28-0.09-0.43
			c0-0.6,0.49-1.09,1.09-1.09C205.93,202.82,206.42,203.3,206.42,203.9"/>
		<path class="st2" d="M204.31,204.6c0.69,0,1.25,0.56,1.25,1.25c0,0.69-0.56,1.25-1.25,1.25c-0.24-0.36-0.64-0.61-1.1-0.65
			c-0.1-0.18-0.15-0.38-0.15-0.6C203.06,205.15,203.62,204.6,204.31,204.6"/>
		<path class="st3" d="M185.1,138.36c0,0-0.26-2.04,1.25-2.96c0,0-1.31,0.53-1.58,2.04c0,0,0-1.18,0.46-1.84
			c0,0-0.98,0.86-0.86,1.91l-1.05-1.25c0,0,0.79,0.99,0.66,1.78v0.39l0.46-0.33l0.33,0.53L185.1,138.36"/>
		<path class="st3" d="M171.62,139.21l-0.46-1.38l0.72,0.92l-0.39-1.12l0.79,1.25c0,0,0.26-0.65,0-0.85c0,0,0.59,0.33,0.79,0.99
			c0.2,0.66,0.06,0.79,0.06,0.79l-0.53-0.53l-0.52,0.07L171.62,139.21"/>
		<path class="st3" d="M173.59,156.91c0,0-1.45-0.07-1.84-0.92c-0.26-0.55-0.49-1.71,1.18-2.89c2.9-2.04,2.24-3.82,2.24-3.82
			s0.98,1.77-2.11,4.28c-1.05,0.85-1.04,1.57-1.05,2.04C171.98,156.65,173.59,156.91,173.59,156.91"/>
		<path d="M191.42,165.49c0,0-0.03,1.05-0.03,1.35l1.35-1.09C192.11,165.62,191.84,165.65,191.42,165.49"/>
		<path d="M186.09,167.69c0,0-0.36,0.39-0.72,0.43c0,0,0.76,0.03,1.25,0C186.37,168.01,186.26,167.85,186.09,167.69"/>
		<polyline points="180.73,169.04 180.93,169.57 181.22,169.08 180.73,169.04 		"/>
		<polyline points="178.59,170.36 178.72,169.77 178.92,170.36 178.59,170.36 		"/>
		<polyline points="176.39,170.26 176.52,169.64 176.75,170.32 176.39,170.26 		"/>
		<path d="M183.82,168.02l-0.23,0.53l1.28-0.26C184.44,168.15,184.07,168.24,183.82,168.02"/>
		<path class="st3" d="M169.81,167.73l0.23,1.12c0,0-0.99-0.49-1.38-0.85c0,0,0.53-0.43,1.15-0.73V167.73"/>
		<path class="st3" d="M185.04,142.04c0,0-1.71,1.84,0.66,2.96C184.62,144.08,184.4,143.1,185.04,142.04"/>
		<path d="M174.31,142.9c0,0,0.92,1.58-0.2,3.55c-1.12,1.97-2.11,1.64-3.49,2.96c-1.38,1.32-4.54,1.25-5.66,0.92
			c0,0,3.62,0.26,5.26-0.99c1.64-1.25,2.7-1.58,3.49-2.89C174.51,145.13,174.31,142.9,174.31,142.9"/>
		<path d="M193.48,147.96c-3.49,0.55-2.9-0.41-5.83-0.41c-2.45,0-3.63-3.45-3.63-3.45s0.73,2.89,3.69,3.17
			C190.68,147.55,191.29,148.29,193.48,147.96"/>
		<path d="M186.16,155.13l-1.42,0.09c0,0-1.45,0.72-2.03,0.8c-0.67,0.41-0.87,1.19-0.87,1.19c0-0.9,0.43-1.15,0.64-1.22
			c-0.05-0.06,0-0.16,0.17-0.39C183.92,153.95,186.16,155.13,186.16,155.13"/>
		<polyline class="st3" points="182.93,170.13 183.16,169.77 183.26,170.03 182.93,170.13 		"/>
		<path class="st3" d="M200.3,143.23c0.13,0.03,2.3-1.18,2.63-1.38C202.93,141.84,200.96,143.36,200.3,143.23"/>
		<path class="st3" d="M200.43,144.34c0,0,1.55-0.56,3.92,0.73C203.02,144.54,201.71,144.3,200.43,144.34"/>
		<path class="st3" d="M200.47,145.46c0,0,1.38,0.49,1.97,1.97C202.03,146.76,201.37,146.1,200.47,145.46"/>
		<path class="st3" d="M159.78,146.58c0,0-1.45,0.79-2.24,1.84L159.78,146.58"/>
		<path class="st3" d="M160.11,147.37c0,0-1.25,1.19-1.71,1.97L160.11,147.37"/>
		<path d="M185.37,156.38c1.91-1.1,2.89-1.38,1.84-3.09c0,0-0.78-2.54-1.58-1.97c-0.59,0.42,0.07,1.1,0.58,1.5
			c0.25,0.2,0.6,0.04,0.6,0.04c-0.06,0.06-0.2,0.33-0.75,0.09c-0.72-0.4-0.89-1.17-0.89-1.17c-0.54-0.14-0.82-1.81-0.93-2.66
			c-0.06-0.17-0.38-1.06-0.98-1.42c0,0,0.86,0.32,1.11,1.22c0.33,0.84,0.09,2.81,0.99,2.26c1.19-0.72,1.91,1.25,2.14,2.07
			c0.39,0.53,0.56,0.99,0.43,1.55c-0.2,0.79-0.59,0.66-0.99,1.05C186.55,156.25,185.37,156.38,185.37,156.38"/>
		<path class="st3" d="M178.13,178.22c0,0,4.87-0.79,7.11-0.26C183.64,177.35,181.28,177.44,178.13,178.22"/>
		<path d="M168.29,180.8c0,0,2.29,3.08,4.83,4.27c2.08,0.98,4.94,1.92,8.44,2.1c4.79,0.24,10.41-3,11.71-5.53
			c0.7-1.37,3.05-5.38,3.05-5.38s-0.74,1.51-2.16,4.61c-0.85,1.79-1.45,3.38-7.08,5.83c-5.59,2.43-12.44-0.39-13.95-1.12
			C170.18,184.16,168.29,180.8,168.29,180.8"/>
		<path d="M169.45,157.5c0,0-2.5,2.76-2.96,4.08c-0.46,1.32-1.65,2.76-1.78,3.29c-0.13,0.53-0.59,1.45-0.06,2.7
			c0.29,0.69,0.62,1.21,0.88,1.69l0.14,0.27c0,0,2.81,4.27,0.67,5.66c0.27-0.19,1.34-1.53-1.19-6.08c-0.32-0.63-0.74-1.35-1.02-1.75
			c-0.59-0.86,0-2.96,0.79-3.68c0.79-0.73,1.25-2.3,1.71-2.96C167.08,160.06,169.45,157.5,169.45,157.5"/>
		<path d="M190.15,154.92c0.14,0.15,0.7,0.72,2.95,2.81c2.83,2.63,3.71,2.38,4.25,4.97c0.32,1.53-0.84,3.63-1.12,4.11
			c-0.25,0.81-0.46,1.79-0.46,2.86c0,0-0.2-2.12,0.99-4.64c0.05-0.22,0.1-0.43,0.13-0.62c0.13-0.92,0.33-3.02-1.51-4.34
			C193.65,158.83,190.54,155.36,190.15,154.92"/>
		<path class="st3" d="M204.71,179.27c-1.44,0.88-2.91,2.3-4.41,4.27L204.71,179.27"/>
		<path d="M213.66,151.51c0,0,0.26,2.24-0.79,5.39c-0.55,1.66-0.92,4.74-0.53,7.37c0,0-1.18-3.95,0.13-7.24
			C213.79,153.75,213.66,151.51,213.66,151.51"/>
		<path d="M150.63,157.04c0,0,0.4,3.68,1.18,5.66c0.79,1.97,1.18,5.13,1.18,5.13s0-3.81-0.92-5.52
			C151.16,160.59,150.63,157.04,150.63,157.04"/>
		<path class="st2" d="M239.01,203.25c-0.47,3.15-1.11,6.22-1.89,9.22l-1.1,0.48c0,0-28.16,12.63-59.47,22.89
			c-2.24,0.74-31.47,11.38-33.62,12.22c-2.14-2.04-5-5.18-8.32-9.77c-0.24-0.34-0.59-0.74-0.82-1.09c3.1-2.24,7.5-4.52,7.5-4.52
			c8.16-7.89,22.89-6.84,22.89-6.84s4.21-1.31,7.11-1.31c2.9,0,10.79-2.37,11.58-3.42c0.79-1.05,4.21-1.84,6.84-2.63
			c2.63-0.79,9.47-3.68,11.84-6.31c2.37-2.63,9.21-2.1,10.26-2.1s3.16-3.42,5.53-4.21c2.37-0.79,5.79-1.84,9.21-3.95
			c3.42-2.1,4.47-0.53,7.63-1.32c0.73-0.18,1.67,0.18,2.68,0.85C237.54,201.94,238.26,202.54,239.01,203.25"/>
		<path class="st1" d="M236.85,201.43c-1.01-0.66-1.95-1.03-2.67-0.85c-3.16,0.79-4.21-0.79-7.63,1.32
			c-3.42,2.1-6.84,3.16-9.21,3.95c-2.37,0.79-4.47,4.21-5.52,4.21c-1.05,0-7.9-0.53-10.26,2.1c-2.37,2.63-9.21,5.53-11.84,6.31
			c-2.63,0.79-6.05,1.58-6.84,2.63c-0.79,1.05-8.68,3.42-11.58,3.42c-2.89,0-7.1,1.32-7.1,1.32s-14.74-1.05-22.89,6.84
			c0,0-4.49,2.25-7.59,4.49c-6.25-9.28-10.7-20.46-12.72-32.74c11.44-2.66,12.41-1.21,12.41-1.21s2.11,0.53,4.47,5.26
			c2.37,4.74,10.26,17.63,10.26,17.63s6.58-3.16,13.16-2.89c6.58,0.26,15.79-0.26,19.74-2.89c3.95-2.63,8.95-4.47,8.95-4.47
			s12.1-8.68,19.21-7.36c0,0,5.53-5.26,10.53-5.26c0,0,6.31-5.53,12.1-4.47C231.81,198.74,233.96,199.26,236.85,201.43"/>
	</g>
	<circle class="st4" cx="180" cy="180" r="88.5"/>
	<circle class="st4" cx="180" cy="180" r="126.29"/>
	<g>
		<g>
			<path class="st5" d="M101.96,237.79l1.62,1.86l-6.03,5.22l6.39,7.38l6.02-5.22l1.62,1.86l-14.01,12.14l-1.61-1.86l6.45-5.59
				l-6.39-7.38l-6.45,5.59l-1.62-1.86L101.96,237.79z"/>
			<path class="st5" d="M113.11,258.03c0.99-0.73,2.05-1.24,3.18-1.53c1.13-0.29,2.3-0.33,3.51-0.11c1.21,0.22,2.41,0.76,3.6,1.62
				c1.19,0.86,2.08,1.84,2.66,2.93c0.58,1.09,0.91,2.21,0.98,3.38c0.07,1.17-0.08,2.33-0.47,3.5c-0.39,1.16-0.95,2.26-1.69,3.28
				c-0.74,1.02-1.61,1.9-2.59,2.62c-0.99,0.73-2.05,1.24-3.18,1.53c-1.13,0.29-2.3,0.33-3.51,0.11c-1.21-0.22-2.41-0.76-3.6-1.62
				c-1.19-0.86-2.08-1.84-2.66-2.92c-0.58-1.09-0.91-2.21-0.98-3.38c-0.07-1.16,0.08-2.33,0.47-3.49c0.38-1.17,0.95-2.26,1.69-3.28
				C111.26,259.63,112.13,258.75,113.11,258.03z M111.17,264.57c-0.34,0.88-0.52,1.77-0.53,2.67c-0.01,0.9,0.18,1.77,0.58,2.6
				c0.4,0.84,1.05,1.59,1.96,2.25c0.91,0.66,1.83,1.05,2.74,1.17c0.92,0.12,1.8,0.03,2.65-0.25c0.85-0.29,1.64-0.73,2.38-1.33
				c0.73-0.6,1.38-1.28,1.93-2.04c0.55-0.76,1-1.58,1.34-2.47c0.34-0.88,0.52-1.77,0.53-2.67c0.01-0.9-0.18-1.77-0.58-2.6
				c-0.4-0.84-1.05-1.59-1.96-2.25c-0.91-0.66-1.83-1.05-2.75-1.17c-0.92-0.12-1.8-0.03-2.65,0.25c-0.85,0.29-1.64,0.73-2.38,1.33
				c-0.74,0.6-1.38,1.28-1.93,2.04C111.96,262.86,111.51,263.68,111.17,264.57z"/>
			<path class="st5" d="M135.6,266.54l3.14,1.25l-0.33,16.64l11.21-12.31l3.14,1.25l-6.85,17.23l-2.17-0.86l5.7-14.33l-0.05-0.02
				l-11.08,12.19l-1.95-0.78l0.32-16.47l-0.05-0.02l-5.7,14.33l-2.17-0.86L135.6,266.54z"/>
			<path class="st5" d="M159.83,274.86l12.66,1.87l-0.3,2l-10.22-1.51l-0.87,5.88l9.53,1.41l-0.3,2l-9.53-1.41l-0.95,6.45l10.3,1.52
				l-0.3,2l-12.74-1.88L159.83,274.86z"/>
			<path class="st5" d="M190.08,276.7l3.31-0.67l8.8,14.12l2.68-16.43l3.31-0.67l3.65,18.17l-2.29,0.46l-3.04-15.12l-0.05,0.01
				l-2.64,16.26l-2.06,0.41l-8.72-13.98l-0.05,0.01l3.04,15.12l-2.29,0.46L190.08,276.7z"/>
			<path class="st5" d="M219.44,268.39l2.47-1.15L236.29,281l-2.47,1.15l-4.19-4.21l-7.11,3.3l0.47,5.94l-2.31,1.07L219.44,268.39z
				 M222.37,279.08l5.7-2.65l-6.47-6.59l-0.05,0.02L222.37,279.08z"/>
			<path class="st5" d="M232.74,261.43l5.07-3.85c2.27-1.73,4.46-2.48,6.57-2.25c2.11,0.23,4.06,1.53,5.86,3.9
				c0.94,1.24,1.64,2.45,2.09,3.61c0.45,1.17,0.64,2.3,0.55,3.39c-0.08,1.1-0.44,2.15-1.07,3.18c-0.64,1.02-1.57,2-2.79,2.93
				l-5.07,3.84L232.74,261.43z M244.69,273.1l3.27-2.48c0.22-0.17,0.48-0.39,0.79-0.68c0.3-0.29,0.59-0.64,0.86-1.05
				c0.27-0.42,0.5-0.89,0.67-1.41c0.18-0.53,0.25-1.12,0.21-1.77c-0.04-0.65-0.21-1.37-0.51-2.16c-0.3-0.79-0.8-1.64-1.5-2.56
				c-0.68-0.89-1.36-1.62-2.07-2.19c-0.7-0.57-1.44-0.95-2.2-1.14c-0.76-0.19-1.55-0.18-2.37,0.03c-0.82,0.21-1.69,0.66-2.6,1.35
				l-3.31,2.51L244.69,273.1z"/>
			<path class="st5" d="M249.35,247.71l8.37-9.68l1.53,1.32l-6.76,7.82l4.5,3.89l6.3-7.29l1.53,1.32l-6.3,7.29l4.93,4.26l6.81-7.88
				l1.53,1.32l-8.42,9.74L249.35,247.71z"/>
		</g>
	</g>
	<g>
		<polygon class="st6" points="80.07,193.37 83.29,188.01 77.47,188.01 74.25,182.62 71.03,188.01 64.71,188.01 67.78,193.37 
			67.79,193.37 64.57,198.72 70.39,198.72 73.61,204.11 76.83,198.72 83.15,198.72 80.08,193.37 		"/>
		<polygon class="st6" points="292.14,193.37 295.36,188.01 289.54,188.01 286.32,182.62 283.1,188.01 276.78,188.01 279.85,193.37 
			279.86,193.37 276.64,198.72 282.46,198.72 285.68,204.11 288.9,198.72 295.22,198.72 292.15,193.37 		"/>
	</g>
</g>
</svg>
