<?xml version="1.0" encoding="utf-8"?>
<!-- Generator: Adobe Illustrator 24.0.1, SVG Export Plug-In . SVG Version: 6.00 Build 0)  -->
<svg version="1.1" id="Layer_1" xmlns="http://www.w3.org/2000/svg" xmlns:xlink="http://www.w3.org/1999/xlink" x="0px" y="0px"
	 viewBox="0 0 100 100" style="enable-background:new 0 0 100 100;" xml:space="preserve">
<style type="text/css">
	.st0{fill:#4C4C4C;}
</style>
<g>
	<path class="st0" d="M49.03,82.71c-17.54,0-31.81-14.27-31.81-31.81c0-17.54,14.27-31.81,31.81-31.81c0.48,0,0.87,0.39,0.87,0.87
		s-0.39,0.87-0.87,0.87c-16.58,0-30.07,13.49-30.07,30.07c0,16.58,13.49,30.07,30.07,30.07c16.58,0,30.07-13.49,30.07-30.07
		c0-0.48,0.39-0.87,0.87-0.87s0.87,0.39,0.87,0.87C80.84,68.44,66.57,82.71,49.03,82.71z M49.03,76.41
		c-5.69,0-11.08-1.84-15.58-5.32c-0.2-0.15-0.32-0.38-0.34-0.63c-0.02-0.25,0.08-0.49,0.25-0.67l34.55-34.55
		c0.18-0.18,0.42-0.27,0.67-0.25c0.25,0.02,0.48,0.14,0.63,0.34c3.48,4.5,5.32,9.89,5.32,15.58C74.54,64.96,63.1,76.41,49.03,76.41z
		 M35.31,70.3c4.03,2.86,8.75,4.37,13.72,4.37C62.14,74.67,72.8,64,72.8,50.9c0-4.97-1.51-9.7-4.37-13.72L35.31,70.3z M29.53,66.82
		c-0.3-0.02-0.53-0.14-0.69-0.34c-3.48-4.5-5.32-9.89-5.32-15.58c0-14.07,11.44-25.51,25.51-25.51c5.69,0,11.08,1.84,15.58,5.32
		c0.2,0.15,0.32,0.38,0.34,0.63c0.02,0.25-0.08,0.49-0.25,0.67L30.14,66.56C29.98,66.72,29.76,66.82,29.53,66.82z M49.03,27.13
		c-13.11,0-23.77,10.66-23.77,23.77c0,4.97,1.51,9.7,4.37,13.72l33.13-33.13C58.73,28.63,54,27.13,49.03,27.13z"/>
	<path class="st0" d="M46.41,49.93c-0.19,0-0.38-0.06-0.54-0.19c-5.8-4.65-9.64-11.86-10.53-19.78c-0.05-0.48,0.29-0.91,0.77-0.96
		c0.48-0.06,0.91,0.29,0.96,0.77c0.85,7.47,4.45,14.25,9.9,18.62c0.37,0.3,0.43,0.85,0.13,1.22C46.92,49.82,46.66,49.93,46.41,49.93
		z"/>
	<path class="st0" d="M46.07,41.28h-6.68c-0.48,0-0.87-0.39-0.87-0.87c0-0.48,0.39-0.87,0.87-0.87h6.68c0.48,0,0.87,0.39,0.87,0.87
		C46.93,40.89,46.55,41.28,46.07,41.28z"/>
	<path class="st0" d="M63.14,31.88h-4.19c-0.48,0-0.87-0.39-0.87-0.87c0-0.48,0.39-0.87,0.87-0.87h4.19c0.48,0,0.87,0.39,0.87,0.87
		C64.01,31.49,63.62,31.88,63.14,31.88z"/>
	<path class="st0" d="M55.01,31.88H47.8c-0.48,0-0.87-0.39-0.87-0.87c0-0.48,0.39-0.87,0.87-0.87h7.22c0.48,0,0.87,0.39,0.87,0.87
		C55.88,31.49,55.49,31.88,55.01,31.88z"/>
	<path class="st0" d="M40.48,31.88h-4.13c-0.48,0-0.87-0.39-0.87-0.87c0-0.48,0.39-0.87,0.87-0.87h4.13c0.48,0,0.87,0.39,0.87,0.87
		C41.35,31.49,40.96,31.88,40.48,31.88z"/>
	<path class="st0" d="M61.86,72.8c-0.44,0-0.81-0.33-0.86-0.77c-0.85-7.47-4.45-14.25-9.9-18.62c-0.37-0.3-0.43-0.85-0.13-1.22
		c0.3-0.37,0.85-0.43,1.22-0.13c5.8,4.65,9.64,11.87,10.53,19.78c0.05,0.48-0.29,0.91-0.77,0.96C61.93,72.8,61.89,72.8,61.86,72.8z"
		/>
	<path class="st0" d="M52.17,62.25h-4.61c-0.48,0-0.87-0.39-0.87-0.87c0-0.48,0.39-0.87,0.87-0.87h4.61c0.48,0,0.87,0.39,0.87,0.87
		C53.03,61.86,52.65,62.25,52.17,62.25z"/>
	<path class="st0" d="M58.67,62.25h-2.95c-0.48,0-0.87-0.39-0.87-0.87c0-0.48,0.39-0.87,0.87-0.87h2.95c0.48,0,0.87,0.39,0.87,0.87
		C59.54,61.86,59.15,62.25,58.67,62.25z"/>
	<path class="st0" d="M45.77,71.65H35.14c-0.48,0-0.87-0.39-0.87-0.87s0.39-0.87,0.87-0.87h10.63c0.48,0,0.87,0.39,0.87,0.87
		S46.25,71.65,45.77,71.65z"/>
	<path class="st0" d="M61.71,71.65h-7.06c-0.48,0-0.87-0.39-0.87-0.87s0.39-0.87,0.87-0.87h7.06c0.48,0,0.87,0.39,0.87,0.87
		S62.19,71.65,61.71,71.65z"/>
	<path class="st0" d="M42.69,34.09c-1.7,0-3.08-1.38-3.08-3.08c0-0.64,0.2-1.26,0.57-1.78c0.28-0.39,0.82-0.48,1.21-0.2
		c0.39,0.28,0.48,0.82,0.2,1.21c-0.16,0.23-0.25,0.5-0.25,0.78c0,0.74,0.6,1.34,1.34,1.34c0.74,0,1.34-0.6,1.34-1.34
		c0-0.41-0.18-0.8-0.51-1.05c-0.38-0.3-0.44-0.85-0.14-1.22c0.3-0.38,0.85-0.44,1.22-0.14c0.74,0.59,1.17,1.47,1.17,2.41
		C45.77,32.71,44.39,34.09,42.69,34.09z"/>
	<path class="st0" d="M49.65,43.23c-0.17,0-0.35-0.05-0.5-0.16c-0.86-0.61-1.38-1.6-1.38-2.66c0-1.79,1.46-3.25,3.25-3.25
		c0.76,0,1.5,0.27,2.08,0.76c0.37,0.31,0.42,0.86,0.11,1.22c-0.31,0.37-0.86,0.42-1.22,0.11c-0.28-0.23-0.61-0.35-0.97-0.35
		c-0.83,0-1.51,0.68-1.51,1.51c0,0.49,0.24,0.95,0.64,1.24c0.39,0.28,0.49,0.82,0.21,1.21C50.2,43.1,49.93,43.23,49.65,43.23z"/>
	<path class="st0" d="M45.51,64.29c-0.31,0-0.62-0.05-0.91-0.15c-0.46-0.15-0.7-0.64-0.55-1.1c0.15-0.46,0.64-0.71,1.1-0.55
		c0.74,0.25,1.54-0.34,1.54-1.11c0-0.26-0.09-0.51-0.25-0.72c-0.3-0.38-0.23-0.92,0.15-1.22c0.38-0.3,0.92-0.23,1.22,0.15
		c0.4,0.51,0.62,1.14,0.62,1.79C48.42,62.99,47.12,64.29,45.51,64.29z"/>
	<path class="st0" d="M50.08,74.08c-0.17,0-0.34-0.05-0.49-0.15c-1.05-0.71-1.68-1.89-1.68-3.15c0-2.1,1.7-3.8,3.8-3.8
		c2.1,0,3.8,1.7,3.8,3.8c0,0.89-0.32,1.76-0.89,2.45c-0.31,0.37-0.85,0.42-1.22,0.1c-0.37-0.31-0.41-0.86-0.1-1.22
		c0.31-0.37,0.48-0.84,0.48-1.33c0-1.14-0.93-2.06-2.06-2.06s-2.06,0.93-2.06,2.06c0,0.69,0.34,1.33,0.91,1.71
		c0.4,0.27,0.5,0.81,0.23,1.21C50.63,73.95,50.35,74.08,50.08,74.08z"/>
	<path class="st0" d="M64.08,57.58c-0.48,0-0.87-0.39-0.87-0.87v-1.52c0-0.48,0.39-0.87,0.87-0.87c0.48,0,0.87,0.39,0.87,0.87v1.52
		C64.95,57.19,64.56,57.58,64.08,57.58z"/>
	<path class="st0" d="M64.84,56.82h-1.52c-0.48,0-0.87-0.39-0.87-0.87c0-0.48,0.39-0.87,0.87-0.87h1.52c0.48,0,0.87,0.39,0.87,0.87
		C65.71,56.43,65.32,56.82,64.84,56.82z"/>
	<path class="st0" d="M67.05,48.85c-0.48,0-0.87-0.39-0.87-0.87v-1.52c0-0.48,0.39-0.87,0.87-0.87c0.48,0,0.87,0.39,0.87,0.87v1.52
		C67.92,48.46,67.53,48.85,67.05,48.85z"/>
	<path class="st0" d="M67.81,48.09h-1.52c-0.48,0-0.87-0.39-0.87-0.87c0-0.48,0.39-0.87,0.87-0.87h1.52c0.48,0,0.87,0.39,0.87,0.87
		C68.68,47.7,68.29,48.09,67.81,48.09z"/>
	<path class="st0" d="M40.33,50.69c-0.48,0-0.87-0.39-0.87-0.87V48.3c0-0.48,0.39-0.87,0.87-0.87s0.87,0.39,0.87,0.87v1.52
		C41.2,50.3,40.81,50.69,40.33,50.69z"/>
	<path class="st0" d="M41.09,49.93h-1.52c-0.48,0-0.87-0.39-0.87-0.87c0-0.48,0.39-0.87,0.87-0.87h1.52c0.48,0,0.87,0.39,0.87,0.87
		C41.96,49.54,41.57,49.93,41.09,49.93z"/>
	<path class="st0" d="M30.99,56.71c-0.48,0-0.87-0.39-0.87-0.87v-1.52c0-0.48,0.39-0.87,0.87-0.87c0.48,0,0.87,0.39,0.87,0.87v1.52
		C31.86,56.32,31.47,56.71,30.99,56.71z"/>
	<path class="st0" d="M31.75,55.95h-1.52c-0.48,0-0.87-0.39-0.87-0.87s0.39-0.87,0.87-0.87h1.52c0.48,0,0.87,0.39,0.87,0.87
		S32.23,55.95,31.75,55.95z"/>
	<path class="st0" d="M32.98,44.75c-0.48,0-0.87-0.39-0.87-0.87v-1.52c0-0.48,0.39-0.87,0.87-0.87c0.48,0,0.87,0.39,0.87,0.87v1.52
		C33.85,44.36,33.46,44.75,32.98,44.75z"/>
	<path class="st0" d="M33.74,43.99h-1.52c-0.48,0-0.87-0.39-0.87-0.87c0-0.48,0.39-0.87,0.87-0.87h1.52c0.48,0,0.87,0.39,0.87,0.87
		C34.61,43.6,34.22,43.99,33.74,43.99z"/>
	<path class="st0" d="M79.97,51.77c-0.48,0-0.87-0.39-0.87-0.87c0-0.57-0.02-1.13-0.05-1.69c-0.03-0.48,0.34-0.89,0.82-0.92
		c0.46-0.03,0.89,0.34,0.91,0.82c0.03,0.59,0.05,1.19,0.05,1.79C80.84,51.38,80.45,51.77,79.97,51.77z"/>
	<path class="st0" d="M78.9,43.67c-0.38,0-0.73-0.25-0.84-0.64c-0.27-1.01-0.6-2.01-0.97-2.98c-0.17-0.45,0.05-0.95,0.5-1.12
		c0.45-0.17,0.95,0.05,1.12,0.5c0.4,1.03,0.74,2.08,1.03,3.15c0.13,0.46-0.15,0.94-0.61,1.07C79.05,43.66,78.98,43.67,78.9,43.67z
		 M74.96,34.89c-0.28,0-0.56-0.14-0.73-0.39c-0.57-0.87-1.19-1.72-1.84-2.53c-0.3-0.37-0.25-0.92,0.13-1.22
		c0.37-0.3,0.92-0.24,1.22,0.13c0.69,0.86,1.35,1.76,1.95,2.68c0.26,0.4,0.15,0.94-0.25,1.2C75.29,34.84,75.13,34.89,74.96,34.89z
		 M68.52,27.73c-0.19,0-0.39-0.06-0.55-0.19c-0.81-0.66-1.66-1.28-2.53-1.84c-0.4-0.26-0.52-0.8-0.25-1.2
		c0.26-0.4,0.8-0.52,1.2-0.25c0.92,0.6,1.82,1.26,2.67,1.95c0.37,0.3,0.43,0.85,0.13,1.22C69.02,27.62,68.77,27.73,68.52,27.73z
		 M60.19,22.9c-0.1,0-0.21-0.02-0.31-0.06c-0.97-0.38-1.97-0.7-2.97-0.97c-0.46-0.13-0.74-0.6-0.61-1.07
		c0.12-0.46,0.6-0.74,1.07-0.61c1.06,0.29,2.12,0.63,3.14,1.03c0.45,0.17,0.67,0.68,0.5,1.12C60.87,22.69,60.54,22.9,60.19,22.9z"/>
	<path class="st0" d="M50.77,20.87c-0.61-0.03-1.17-0.05-1.74-0.05c-0.48,0-0.87-0.39-0.87-0.87s0.39-0.87,0.87-0.87
		c0.6,0,1.19,0.02,1.79,0.05c0.48,0.03,0.85,0.44,0.82,0.92C51.61,20.52,51.23,20.87,50.77,20.87z"/>
</g>
</svg>
