<?xml version="1.0" encoding="utf-8"?>
<!-- Generator: Adobe Illustrator 24.0.1, SVG Export Plug-In . SVG Version: 6.00 Build 0)  -->
<svg version="1.1" id="Capa_1" xmlns="http://www.w3.org/2000/svg" xmlns:xlink="http://www.w3.org/1999/xlink" x="0px" y="0px"
	 viewBox="0 0 512 512" style="enable-background:new 0 0 512 512;" xml:space="preserve">
<style type="text/css">
	.st0{fill:#FFFFFF;}
</style>
<g>
	<g>
		<path class="st0" d="M417.4,205.2L157.6,45.1C138.8,33.5,116,33,96.8,43.8C77.5,54.5,66,74.1,66,96.2v318.9
			c0,33.4,26.9,60.7,60,60.9c0.1,0,0.2,0,0.3,0c10.3,0,21.1-3.2,31.1-9.4c8.1-4.9,10.6-15.5,5.7-23.6c-4.9-8.1-15.5-10.6-23.6-5.7
			c-4.7,2.9-9.3,4.4-13.4,4.4c-12.5-0.1-25.8-10.8-25.8-26.6V96.2c0-9.5,4.9-17.9,13.2-22.5c8.3-4.6,18-4.4,26.1,0.5l259.8,160.2
			c7.8,4.8,12.3,12.8,12.3,22c0,9.2-4.5,17.2-12.4,22l-187.9,115c-8.1,4.9-10.6,15.5-5.7,23.6c4.9,8.1,15.5,10.6,23.6,5.7l187.8-115
			c18-11,28.7-30.1,28.8-51.2C446,235.4,435.4,216.3,417.4,205.2z"/>
	</g>
</g>
</svg>
